<mxfile host="Electron" modified="2023-04-30T15:54:01.920Z" agent="Mozilla/5.0 (Windows NT 10.0; Win64; x64) AppleWebKit/537.36 (KHTML, like Gecko) draw.io/21.2.1 Chrome/112.0.5615.87 Electron/24.1.2 Safari/537.36" etag="gV5x2XnKeYzEabCj-GSx" version="21.2.1" type="device">
  <diagram name="Page-1" id="KBW3ugEOn-Q8geGjZRpk">
    <mxGraphModel dx="3084" dy="2393" grid="0" gridSize="10" guides="1" tooltips="1" connect="1" arrows="1" fold="1" page="0" pageScale="1" pageWidth="850" pageHeight="1100" math="0" shadow="0">
      <root>
        <mxCell id="0" />
        <mxCell id="1" parent="0" />
        <UserObject label="" tags="Background" id="S82p3zj0UuUOeoXFryLE-1">
          <mxCell style="vsdxID=25;fillColor=#345593;gradientColor=none;shape=stencil(nZBLDoAgDERP0z3SIyDew0QUooJB/N1eSGM0LFywm2lf23QAxarbRQFna/BuVIfpggasgXNjtfImRAUoAUXvvBq822xHfmkTmdTs9rThpDmWJji7yFWMfEPoZOwHfZpF8A9aCGbno3h/jCYPIJYoPJQ3);strokeColor=#233862;strokeWidth=2;points=[];labelBackgroundColor=none;rounded=1;html=1;whiteSpace=wrap;fontColor=#000000;fontFamily=Calibri;" vertex="1" parent="1">
            <mxGeometry x="-356" y="-939" width="345" height="488" as="geometry" />
          </mxCell>
        </UserObject>
        <UserObject label="" tags="Background" id="S82p3zj0UuUOeoXFryLE-2">
          <mxCell style="vsdxID=190;fillColor=#345593;gradientColor=none;shape=stencil(nZBLDoAgDERP0z3SIyDew0QUooJB/N1eSGM0LFywm2lf23QAxarbRQFna/BuVIfpggasgXNjtfImRAUoAUXvvBq822xHfmkTmdTs9rThpDmWJji7yFWMfEPoZOwHfZpF8A9aCGbno3h/jCYPIJYoPJQ3);strokeColor=#233862;strokeWidth=2;points=[];labelBackgroundColor=none;rounded=1;html=1;whiteSpace=wrap;fontColor=#000000;fontFamily=Calibri;" vertex="1" parent="1">
            <mxGeometry x="-951" y="-82" width="345" height="400" as="geometry" />
          </mxCell>
        </UserObject>
        <mxCell id="S82p3zj0UuUOeoXFryLE-3" style="rounded=1;fontColor=#000000;fontFamily=Calibri;" vertex="1" parent="1">
          <mxGeometry x="-50.09" y="-692" as="geometry" />
        </mxCell>
        <mxCell id="S82p3zj0UuUOeoXFryLE-4" style="rounded=1;fontColor=#000000;fontFamily=Calibri;" vertex="1" parent="1">
          <mxGeometry x="-50.09" y="-703" as="geometry" />
        </mxCell>
        <mxCell id="S82p3zj0UuUOeoXFryLE-5" style="edgeStyle=none;curved=1;rounded=1;orthogonalLoop=1;jettySize=auto;html=1;exitX=0.5;exitY=1;exitDx=0;exitDy=0;exitPerimeter=0;entryX=0.5;entryY=0;entryDx=0;entryDy=0;fontSize=12;startSize=8;endSize=8;fontFamily=Calibri;" edge="1" parent="1" source="S82p3zj0UuUOeoXFryLE-9" target="S82p3zj0UuUOeoXFryLE-48">
          <mxGeometry relative="1" as="geometry">
            <mxPoint x="-217.59" y="-772" as="sourcePoint" />
            <mxPoint x="-218.59" y="-745" as="targetPoint" />
          </mxGeometry>
        </mxCell>
        <mxCell id="S82p3zj0UuUOeoXFryLE-6" style="edgeStyle=none;curved=1;rounded=1;orthogonalLoop=1;jettySize=auto;html=1;exitX=0.5;exitY=1;exitDx=0;exitDy=0;exitPerimeter=0;entryX=0.483;entryY=0.005;entryDx=0;entryDy=0;entryPerimeter=0;fontSize=12;startSize=8;endSize=8;fontFamily=Calibri;" edge="1" parent="1" source="S82p3zj0UuUOeoXFryLE-7">
          <mxGeometry relative="1" as="geometry">
            <mxPoint x="-219.307" y="-806.825" as="targetPoint" />
          </mxGeometry>
        </mxCell>
        <UserObject label="&lt;div style=&quot;font-size: 1px&quot;&gt;&lt;font style=&quot;font-size: 11.29px; direction: ltr; letter-spacing: 0px; line-height: 120%; opacity: 1;&quot;&gt;Start&lt;br&gt;&lt;/font&gt;&lt;/div&gt;" Function="EN_DIO_Error_T DIO_init(uint8_t pinNumber, EN_DIO_PORT_T portNumber, EN_DIO_DIRECTION_T direction);" tags="Flowchart" id="S82p3zj0UuUOeoXFryLE-7">
          <mxCell style="verticalAlign=middle;align=center;overflow=width;vsdxID=30;fillColor=#dae8fc;shape=stencil(tVLREoIgEPwaHnEQxsl3s/9gEpSJwDko7e+DsEkze2l627vdu5uFRaxyHe8FosR5sCcxqMZ3iO0Rpcp0ApQPCLEasUpaEC3Yi2lS3fOojOhsr3HDmObyMtsVcYqS29Qh5FEfklwrM5OXeUa/yjkcAwfr7TDpiyTfXvjkMR+Vw2A998qaBac5tAKHU1hq3i4oNwjRr9ofvayt/+Rk+yX/4iWA159KpXWKxJx/z0Bopfyw+g4=);strokeColor=#6c8ebf;spacingTop=-1;spacingBottom=-1;spacingLeft=-1;spacingRight=-1;points=[[0.5,1,0],[0.5,0,0],[0,0.5,0],[1,0.5,0]];labelBackgroundColor=none;rounded=1;html=1;whiteSpace=wrap;fontFamily=Calibri;" vertex="1" parent="1">
            <mxGeometry x="-269.09000000000003" y="-896" width="101" height="38" as="geometry" />
          </mxCell>
        </UserObject>
        <mxCell id="S82p3zj0UuUOeoXFryLE-8" value="App startProgram" style="text;html=1;strokeColor=none;fillColor=none;align=center;verticalAlign=middle;whiteSpace=wrap;rounded=0;fontSize=16;fontFamily=Calibri;" vertex="1" parent="1">
          <mxGeometry x="-143.09" y="-941" width="110" height="30" as="geometry" />
        </mxCell>
        <UserObject label="&lt;div style=&quot;font-size: 1px&quot;&gt;&lt;font style=&quot;font-size: 11.29px; direction: ltr; letter-spacing: 0px; line-height: 120%; opacity: 1;&quot;&gt;Switch AppState&lt;br&gt;&lt;/font&gt;&lt;/div&gt;" Function="EN_DIO_Error_T DIO_toggle(uint8_t pinNumber, EN_DIO_PORT_T portNumber);  " tags="Flowchart" id="S82p3zj0UuUOeoXFryLE-9">
          <mxCell style="verticalAlign=middle;align=center;overflow=width;vsdxID=274;fillColor=#d5e8d4;shape=stencil(nZBLDoAgDERP0z3SIyjew0SURgSD+Lu9kMZoXLhwN9O+tukAlrNpJg1SzDH4QW/URgNYgZTkjA4UkwJUgGXng+6DX1zLfmoymdXo17xh5zmRJ6Q42BWCfc2oJfdAr+Yv+AP9Cb7OJ3H/2JG1HNGz/84klThPVCc=);strokeColor=#82b366;spacingTop=-1;spacingBottom=-1;spacingLeft=-1;spacingRight=-1;points=[[0,0.5,0],[1,0.5,0],[0.5,1,0],[0.5,0,0]];labelBackgroundColor=none;rounded=1;html=1;whiteSpace=wrap;fontFamily=Calibri;" vertex="1" parent="1">
            <mxGeometry x="-269.09000000000003" y="-806.5699999999999" width="101" height="33" as="geometry" />
          </mxCell>
        </UserObject>
        <mxCell id="S82p3zj0UuUOeoXFryLE-10" style="edgeStyle=none;curved=1;rounded=0;orthogonalLoop=1;jettySize=auto;html=1;fontSize=12;startSize=8;endSize=8;" edge="1" parent="1" source="S82p3zj0UuUOeoXFryLE-11">
          <mxGeometry relative="1" as="geometry">
            <mxPoint x="46.56957446808488" y="-703" as="targetPoint" />
          </mxGeometry>
        </mxCell>
        <UserObject label="&lt;div style=&quot;font-size: 1px&quot;&gt;&lt;font style=&quot;font-size: 11.29px; direction: ltr; letter-spacing: 0px; line-height: 120%; opacity: 1;&quot;&gt;Adjust Screen&lt;br&gt;&lt;/font&gt;&lt;/div&gt;" Function="EN_DIO_Error_T DIO_write(uint8_t pinNumber, EN_DIO_PORT_T portNumber, uint8_t value); " tags="Flowchart" id="S82p3zj0UuUOeoXFryLE-11">
          <mxCell style="verticalAlign=middle;align=center;overflow=width;vsdxID=235;shape=stencil(nZLRDsIgDEW/pq+GlRh9n/M/loyNRoSFodO/F9JMHWYm29u99LTkFkCWg657BSiG4N1FjdQEDfIEiGS18hSiAlmBLFvnVefdzTbs+zqRSV3dPU14cJ9IHSie7ArB/syoIfuFTsVN8B90I5hdH8UnY0vG8Ire9aUFFLjbr4iV0zN2Pvl4WDP5h15OlyWLIn/teMQ/RVYv);spacingTop=-1;spacingBottom=-1;spacingLeft=-1;spacingRight=-1;points=[[0,0.5,0],[1,0.5,0],[0.5,1,0],[0.5,0,0]];labelBackgroundColor=none;rounded=1;html=1;whiteSpace=wrap;fillColor=#ffe6cc;strokeColor=#d79b00;fontFamily=Calibri;" vertex="1" parent="1">
            <mxGeometry x="-113.09" y="-720.5" width="101" height="35" as="geometry" />
          </mxCell>
        </UserObject>
        <mxCell id="S82p3zj0UuUOeoXFryLE-12" value="&lt;font style=&quot;font-size: 14px;&quot;&gt;Adjust Screen&lt;br&gt;&lt;/font&gt;" style="swimlane;whiteSpace=wrap;html=1;rounded=1;fontSize=16;fontFamily=Calibri;fillColor=#ffe6cc;strokeColor=#d79b00;" vertex="1" parent="1">
          <mxGeometry x="-1024" y="-941" width="589" height="559" as="geometry">
            <mxRectangle x="-207" y="152.5" width="134" height="31" as="alternateBounds" />
          </mxGeometry>
        </mxCell>
        <mxCell id="S82p3zj0UuUOeoXFryLE-13" style="edgeStyle=none;curved=1;rounded=0;orthogonalLoop=1;jettySize=auto;html=1;entryX=0.5;entryY=0;entryDx=0;entryDy=0;fontSize=12;startSize=8;endSize=8;" edge="1" parent="S82p3zj0UuUOeoXFryLE-12" source="S82p3zj0UuUOeoXFryLE-14" target="S82p3zj0UuUOeoXFryLE-17">
          <mxGeometry relative="1" as="geometry" />
        </mxCell>
        <UserObject label="&lt;div style=&quot;font-size: 1px&quot;&gt;&lt;font style=&quot;font-size: 11.29px; direction: ltr; letter-spacing: 0px; line-height: 120%; opacity: 1;&quot;&gt;Start&lt;br&gt;&lt;/font&gt;&lt;/div&gt;" Function="EN_DIO_Error_T DIO_init(uint8_t pinNumber, EN_DIO_PORT_T portNumber, EN_DIO_DIRECTION_T direction);" tags="Flowchart" id="S82p3zj0UuUOeoXFryLE-14">
          <mxCell style="verticalAlign=middle;align=center;overflow=width;vsdxID=30;fillColor=#dae8fc;shape=stencil(tVLREoIgEPwaHnEQxsl3s/9gEpSJwDko7e+DsEkze2l627vdu5uFRaxyHe8FosR5sCcxqMZ3iO0Rpcp0ApQPCLEasUpaEC3Yi2lS3fOojOhsr3HDmObyMtsVcYqS29Qh5FEfklwrM5OXeUa/yjkcAwfr7TDpiyTfXvjkMR+Vw2A998qaBac5tAKHU1hq3i4oNwjRr9ofvayt/+Rk+yX/4iWA159KpXWKxJx/z0Bopfyw+g4=);strokeColor=#6c8ebf;spacingTop=-1;spacingBottom=-1;spacingLeft=-1;spacingRight=-1;points=[[0.5,1,0],[0.5,0,0],[0,0.5,0],[1,0.5,0]];labelBackgroundColor=none;rounded=1;html=1;whiteSpace=wrap;fontFamily=Calibri;" vertex="1" parent="S82p3zj0UuUOeoXFryLE-12">
            <mxGeometry x="84" y="33" width="101" height="38" as="geometry" />
          </mxCell>
        </UserObject>
        <mxCell id="S82p3zj0UuUOeoXFryLE-15" style="edgeStyle=none;curved=1;rounded=0;orthogonalLoop=1;jettySize=auto;html=1;entryX=0;entryY=0.5;entryDx=0;entryDy=0;entryPerimeter=0;fontSize=12;startSize=8;endSize=8;" edge="1" parent="S82p3zj0UuUOeoXFryLE-12" source="S82p3zj0UuUOeoXFryLE-17" target="S82p3zj0UuUOeoXFryLE-19">
          <mxGeometry relative="1" as="geometry" />
        </mxCell>
        <mxCell id="S82p3zj0UuUOeoXFryLE-16" style="edgeStyle=none;curved=1;rounded=0;orthogonalLoop=1;jettySize=auto;html=1;entryX=0.5;entryY=0;entryDx=0;entryDy=0;fontSize=12;startSize=8;endSize=8;" edge="1" parent="S82p3zj0UuUOeoXFryLE-12" source="S82p3zj0UuUOeoXFryLE-17" target="S82p3zj0UuUOeoXFryLE-34">
          <mxGeometry relative="1" as="geometry" />
        </mxCell>
        <mxCell id="S82p3zj0UuUOeoXFryLE-17" value="Keypad&lt;br&gt;key pressed" style="rhombus;whiteSpace=wrap;html=1;fontSize=12;fontFamily=Calibri;fillColor=#fff2cc;strokeColor=#d6b656;" vertex="1" parent="S82p3zj0UuUOeoXFryLE-12">
          <mxGeometry x="94.5" y="86" width="80" height="80" as="geometry" />
        </mxCell>
        <mxCell id="S82p3zj0UuUOeoXFryLE-18" style="edgeStyle=none;curved=1;rounded=0;orthogonalLoop=1;jettySize=auto;html=1;entryX=0.5;entryY=0;entryDx=0;entryDy=0;fontSize=12;startSize=8;endSize=8;" edge="1" parent="S82p3zj0UuUOeoXFryLE-12" source="S82p3zj0UuUOeoXFryLE-19" target="S82p3zj0UuUOeoXFryLE-26">
          <mxGeometry relative="1" as="geometry" />
        </mxCell>
        <UserObject label="&lt;div style=&quot;font-size: 1px&quot;&gt;&lt;font style=&quot;font-size: 11.29px; direction: ltr; letter-spacing: 0px; line-height: 120%; opacity: 1;&quot;&gt;Switch Key&lt;br&gt;&lt;/font&gt;&lt;/div&gt;" Function="EN_DIO_Error_T DIO_toggle(uint8_t pinNumber, EN_DIO_PORT_T portNumber);  " tags="Flowchart" id="S82p3zj0UuUOeoXFryLE-19">
          <mxCell style="verticalAlign=middle;align=center;overflow=width;vsdxID=274;fillColor=#d5e8d4;shape=stencil(nZBLDoAgDERP0z3SIyjew0SURgSD+Lu9kMZoXLhwN9O+tukAlrNpJg1SzDH4QW/URgNYgZTkjA4UkwJUgGXng+6DX1zLfmoymdXo17xh5zmRJ6Q42BWCfc2oJfdAr+Yv+AP9Cb7OJ3H/2JG1HNGz/84klThPVCc=);strokeColor=#82b366;spacingTop=-1;spacingBottom=-1;spacingLeft=-1;spacingRight=-1;points=[[0,0.5,0],[1,0.5,0],[0.5,1,0],[0.5,0,0]];labelBackgroundColor=none;rounded=1;html=1;whiteSpace=wrap;fontFamily=Calibri;" vertex="1" parent="S82p3zj0UuUOeoXFryLE-12">
            <mxGeometry x="324" y="110" width="101" height="33" as="geometry" />
          </mxCell>
        </UserObject>
        <mxCell id="S82p3zj0UuUOeoXFryLE-20" value="Case&lt;br style=&quot;border-color: var(--border-color); font-size: 12px;&quot;&gt;INCREMENT" style="rhombus;whiteSpace=wrap;html=1;fontSize=12;fontFamily=Calibri;fillColor=#fff2cc;strokeColor=#d6b656;" vertex="1" parent="S82p3zj0UuUOeoXFryLE-12">
          <mxGeometry x="335" y="274" width="80" height="80" as="geometry" />
        </mxCell>
        <mxCell id="S82p3zj0UuUOeoXFryLE-21" style="edgeStyle=none;curved=1;rounded=0;orthogonalLoop=1;jettySize=auto;html=1;fontSize=12;startSize=8;endSize=8;" edge="1" parent="S82p3zj0UuUOeoXFryLE-12" source="S82p3zj0UuUOeoXFryLE-23">
          <mxGeometry relative="1" as="geometry">
            <mxPoint x="376" y="526" as="targetPoint" />
          </mxGeometry>
        </mxCell>
        <mxCell id="S82p3zj0UuUOeoXFryLE-22" style="edgeStyle=none;curved=1;rounded=0;orthogonalLoop=1;jettySize=auto;html=1;entryX=1;entryY=0.5;entryDx=0;entryDy=0;entryPerimeter=0;fontSize=12;startSize=8;endSize=8;" edge="1" parent="S82p3zj0UuUOeoXFryLE-12" source="S82p3zj0UuUOeoXFryLE-23" target="S82p3zj0UuUOeoXFryLE-45">
          <mxGeometry relative="1" as="geometry" />
        </mxCell>
        <mxCell id="S82p3zj0UuUOeoXFryLE-23" value="Case&lt;br style=&quot;border-color: var(--border-color); font-size: 12px;&quot;&gt;&lt;span style=&quot;font-size: 12px;&quot;&gt;DECREMENT&lt;/span&gt;" style="rhombus;whiteSpace=wrap;html=1;fontSize=12;fontFamily=Calibri;fillColor=#fff2cc;strokeColor=#d6b656;" vertex="1" parent="S82p3zj0UuUOeoXFryLE-12">
          <mxGeometry x="335.5" y="398" width="80" height="80" as="geometry" />
        </mxCell>
        <mxCell id="S82p3zj0UuUOeoXFryLE-24" value="" style="edgeStyle=none;curved=1;rounded=0;orthogonalLoop=1;jettySize=auto;html=1;fontSize=12;startSize=8;endSize=8;" edge="1" parent="S82p3zj0UuUOeoXFryLE-12" source="S82p3zj0UuUOeoXFryLE-20" target="S82p3zj0UuUOeoXFryLE-23">
          <mxGeometry relative="1" as="geometry" />
        </mxCell>
        <mxCell id="S82p3zj0UuUOeoXFryLE-25" style="edgeStyle=none;curved=1;rounded=0;orthogonalLoop=1;jettySize=auto;html=1;entryX=0.5;entryY=0;entryDx=0;entryDy=0;fontSize=12;startSize=8;endSize=8;" edge="1" parent="S82p3zj0UuUOeoXFryLE-12" source="S82p3zj0UuUOeoXFryLE-26" target="S82p3zj0UuUOeoXFryLE-20">
          <mxGeometry relative="1" as="geometry" />
        </mxCell>
        <mxCell id="S82p3zj0UuUOeoXFryLE-26" value="Case&lt;br style=&quot;border-color: var(--border-color); font-size: 12px;&quot;&gt;&lt;span style=&quot;font-size: 12px;&quot;&gt;SET&lt;/span&gt;" style="rhombus;whiteSpace=wrap;html=1;fontSize=12;fontFamily=Calibri;fillColor=#fff2cc;strokeColor=#d6b656;" vertex="1" parent="S82p3zj0UuUOeoXFryLE-12">
          <mxGeometry x="335" y="170" width="80" height="80" as="geometry" />
        </mxCell>
        <mxCell id="S82p3zj0UuUOeoXFryLE-27" style="edgeStyle=none;curved=1;rounded=0;orthogonalLoop=1;jettySize=auto;html=1;entryX=0.5;entryY=0;entryDx=0;entryDy=0;entryPerimeter=0;fontSize=12;startSize=8;endSize=8;" edge="1" parent="S82p3zj0UuUOeoXFryLE-12" source="S82p3zj0UuUOeoXFryLE-28" target="S82p3zj0UuUOeoXFryLE-31">
          <mxGeometry relative="1" as="geometry" />
        </mxCell>
        <UserObject label="&lt;div style=&quot;font-size: 1px&quot;&gt;&lt;font style=&quot;font-size: 11.29px; direction: ltr; letter-spacing: 0px; line-height: 120%; opacity: 1;&quot;&gt;Stop timout timer&lt;br&gt;&lt;/font&gt;&lt;/div&gt;" Function="EN_DIO_Error_T DIO_toggle(uint8_t pinNumber, EN_DIO_PORT_T portNumber);  " tags="Flowchart" id="S82p3zj0UuUOeoXFryLE-28">
          <mxCell style="verticalAlign=middle;align=center;overflow=width;vsdxID=274;fillColor=#d5e8d4;shape=stencil(nZBLDoAgDERP0z3SIyjew0SURgSD+Lu9kMZoXLhwN9O+tukAlrNpJg1SzDH4QW/URgNYgZTkjA4UkwJUgGXng+6DX1zLfmoymdXo17xh5zmRJ6Q42BWCfc2oJfdAr+Yv+AP9Cb7OJ3H/2JG1HNGz/84klThPVCc=);strokeColor=#82b366;spacingTop=-1;spacingBottom=-1;spacingLeft=-1;spacingRight=-1;points=[[0,0.5,0],[1,0.5,0],[0.5,1,0],[0.5,0,0]];labelBackgroundColor=none;rounded=1;html=1;whiteSpace=wrap;fontFamily=Calibri;" vertex="1" parent="S82p3zj0UuUOeoXFryLE-12">
            <mxGeometry x="439.5" y="193.5" width="124.5" height="33" as="geometry" />
          </mxCell>
        </UserObject>
        <mxCell id="S82p3zj0UuUOeoXFryLE-29" style="edgeStyle=none;curved=1;rounded=0;orthogonalLoop=1;jettySize=auto;html=1;entryX=0;entryY=0.5;entryDx=0;entryDy=0;entryPerimeter=0;fontSize=12;startSize=8;endSize=8;" edge="1" parent="S82p3zj0UuUOeoXFryLE-12" source="S82p3zj0UuUOeoXFryLE-26" target="S82p3zj0UuUOeoXFryLE-28">
          <mxGeometry relative="1" as="geometry" />
        </mxCell>
        <mxCell id="S82p3zj0UuUOeoXFryLE-30" style="edgeStyle=orthogonalEdgeStyle;rounded=0;orthogonalLoop=1;jettySize=auto;html=1;entryX=1;entryY=0.5;entryDx=0;entryDy=0;entryPerimeter=0;fontSize=12;startSize=8;endSize=8;" edge="1" parent="S82p3zj0UuUOeoXFryLE-12" source="S82p3zj0UuUOeoXFryLE-31" target="S82p3zj0UuUOeoXFryLE-39">
          <mxGeometry relative="1" as="geometry">
            <Array as="points">
              <mxPoint x="502" y="525" />
            </Array>
          </mxGeometry>
        </mxCell>
        <UserObject label="&lt;div style=&quot;font-size: 1px&quot;&gt;&lt;font style=&quot;font-size: 11.29px; direction: ltr; letter-spacing: 0px; line-height: 120%; opacity: 1;&quot;&gt;set AppState = RUNNING&lt;/font&gt;&lt;/div&gt;" Function="EN_DIO_Error_T DIO_toggle(uint8_t pinNumber, EN_DIO_PORT_T portNumber);  " tags="Flowchart" id="S82p3zj0UuUOeoXFryLE-31">
          <mxCell style="verticalAlign=middle;align=center;overflow=width;vsdxID=274;fillColor=#d5e8d4;shape=stencil(nZBLDoAgDERP0z3SIyjew0SURgSD+Lu9kMZoXLhwN9O+tukAlrNpJg1SzDH4QW/URgNYgZTkjA4UkwJUgGXng+6DX1zLfmoymdXo17xh5zmRJ6Q42BWCfc2oJfdAr+Yv+AP9Cb7OJ3H/2JG1HNGz/84klThPVCc=);strokeColor=#82b366;spacingTop=-1;spacingBottom=-1;spacingLeft=-1;spacingRight=-1;points=[[0,0.5,0],[1,0.5,0],[0.5,1,0],[0.5,0,0]];labelBackgroundColor=none;rounded=1;html=1;whiteSpace=wrap;fontFamily=Calibri;" vertex="1" parent="S82p3zj0UuUOeoXFryLE-12">
            <mxGeometry x="439.5" y="257" width="124.5" height="33" as="geometry" />
          </mxCell>
        </UserObject>
        <mxCell id="S82p3zj0UuUOeoXFryLE-32" style="edgeStyle=none;curved=1;rounded=0;orthogonalLoop=1;jettySize=auto;html=1;entryX=0.5;entryY=0;entryDx=0;entryDy=0;entryPerimeter=0;fontSize=12;startSize=8;endSize=8;" edge="1" parent="S82p3zj0UuUOeoXFryLE-12" source="S82p3zj0UuUOeoXFryLE-34" target="S82p3zj0UuUOeoXFryLE-36">
          <mxGeometry relative="1" as="geometry" />
        </mxCell>
        <mxCell id="S82p3zj0UuUOeoXFryLE-33" style="edgeStyle=orthogonalEdgeStyle;rounded=0;orthogonalLoop=1;jettySize=auto;html=1;entryX=0;entryY=0.5;entryDx=0;entryDy=0;entryPerimeter=0;fontSize=12;startSize=8;endSize=8;" edge="1" parent="S82p3zj0UuUOeoXFryLE-12" source="S82p3zj0UuUOeoXFryLE-34" target="S82p3zj0UuUOeoXFryLE-39">
          <mxGeometry relative="1" as="geometry">
            <Array as="points">
              <mxPoint x="48" y="255" />
              <mxPoint x="48" y="525" />
            </Array>
          </mxGeometry>
        </mxCell>
        <mxCell id="S82p3zj0UuUOeoXFryLE-34" value="input&lt;br&gt;timed out?" style="rhombus;whiteSpace=wrap;html=1;fontSize=12;fontFamily=Calibri;fillColor=#fff2cc;strokeColor=#d6b656;" vertex="1" parent="S82p3zj0UuUOeoXFryLE-12">
          <mxGeometry x="94.5" y="215" width="80" height="80" as="geometry" />
        </mxCell>
        <mxCell id="S82p3zj0UuUOeoXFryLE-35" style="edgeStyle=none;curved=1;rounded=0;orthogonalLoop=1;jettySize=auto;html=1;entryX=0.5;entryY=0;entryDx=0;entryDy=0;entryPerimeter=0;fontSize=12;startSize=8;endSize=8;" edge="1" parent="S82p3zj0UuUOeoXFryLE-12" source="S82p3zj0UuUOeoXFryLE-36" target="S82p3zj0UuUOeoXFryLE-38">
          <mxGeometry relative="1" as="geometry" />
        </mxCell>
        <UserObject label="&lt;div style=&quot;font-size: 1px&quot;&gt;&lt;font style=&quot;font-size: 11.29px; direction: ltr; letter-spacing: 0px; line-height: 120%; opacity: 1;&quot;&gt;set temperature to default (20 C)&lt;/font&gt;&lt;/div&gt;" Function="EN_DIO_Error_T DIO_toggle(uint8_t pinNumber, EN_DIO_PORT_T portNumber);  " tags="Flowchart" id="S82p3zj0UuUOeoXFryLE-36">
          <mxCell style="verticalAlign=middle;align=center;overflow=width;vsdxID=274;fillColor=#d5e8d4;shape=stencil(nZBLDoAgDERP0z3SIyjew0SURgSD+Lu9kMZoXLhwN9O+tukAlrNpJg1SzDH4QW/URgNYgZTkjA4UkwJUgGXng+6DX1zLfmoymdXo17xh5zmRJ6Q42BWCfc2oJfdAr+Yv+AP9Cb7OJ3H/2JG1HNGz/84klThPVCc=);strokeColor=#82b366;spacingTop=-1;spacingBottom=-1;spacingLeft=-1;spacingRight=-1;points=[[0,0.5,0],[1,0.5,0],[0.5,1,0],[0.5,0,0]];labelBackgroundColor=none;rounded=1;html=1;whiteSpace=wrap;fontFamily=Calibri;" vertex="1" parent="S82p3zj0UuUOeoXFryLE-12">
            <mxGeometry x="84" y="332" width="101" height="33" as="geometry" />
          </mxCell>
        </UserObject>
        <mxCell id="S82p3zj0UuUOeoXFryLE-37" style="edgeStyle=none;curved=1;rounded=0;orthogonalLoop=1;jettySize=auto;html=1;entryX=0.5;entryY=0;entryDx=0;entryDy=0;entryPerimeter=0;fontSize=12;startSize=8;endSize=8;" edge="1" parent="S82p3zj0UuUOeoXFryLE-12" source="S82p3zj0UuUOeoXFryLE-38" target="S82p3zj0UuUOeoXFryLE-39">
          <mxGeometry relative="1" as="geometry" />
        </mxCell>
        <UserObject label="&lt;div style=&quot;font-size: 1px&quot;&gt;&lt;font style=&quot;font-size: 11.29px; direction: ltr; letter-spacing: 0px; line-height: 120%; opacity: 1;&quot;&gt;set AppState = RUNNING&lt;/font&gt;&lt;/div&gt;" Function="EN_DIO_Error_T DIO_toggle(uint8_t pinNumber, EN_DIO_PORT_T portNumber);  " tags="Flowchart" id="S82p3zj0UuUOeoXFryLE-38">
          <mxCell style="verticalAlign=middle;align=center;overflow=width;vsdxID=274;fillColor=#d5e8d4;shape=stencil(nZBLDoAgDERP0z3SIyjew0SURgSD+Lu9kMZoXLhwN9O+tukAlrNpJg1SzDH4QW/URgNYgZTkjA4UkwJUgGXng+6DX1zLfmoymdXo17xh5zmRJ6Q42BWCfc2oJfdAr+Yv+AP9Cb7OJ3H/2JG1HNGz/84klThPVCc=);strokeColor=#82b366;spacingTop=-1;spacingBottom=-1;spacingLeft=-1;spacingRight=-1;points=[[0,0.5,0],[1,0.5,0],[0.5,1,0],[0.5,0,0]];labelBackgroundColor=none;rounded=1;html=1;whiteSpace=wrap;fontFamily=Calibri;" vertex="1" parent="S82p3zj0UuUOeoXFryLE-12">
            <mxGeometry x="72.25" y="405" width="124.5" height="33" as="geometry" />
          </mxCell>
        </UserObject>
        <UserObject label="&lt;div style=&quot;font-size: 1px&quot;&gt;&lt;font style=&quot;font-size: 11.29px; direction: ltr; letter-spacing: 0px; line-height: 120%; opacity: 1;&quot;&gt;END&lt;br&gt;&lt;/font&gt;&lt;/div&gt;" Function="EN_DIO_Error_T DIO_init(uint8_t pinNumber, EN_DIO_PORT_T portNumber, EN_DIO_DIRECTION_T direction);" tags="Flowchart" id="S82p3zj0UuUOeoXFryLE-39">
          <mxCell style="verticalAlign=middle;align=center;overflow=width;vsdxID=30;fillColor=#dae8fc;shape=stencil(tVLREoIgEPwaHnEQxsl3s/9gEpSJwDko7e+DsEkze2l627vdu5uFRaxyHe8FosR5sCcxqMZ3iO0Rpcp0ApQPCLEasUpaEC3Yi2lS3fOojOhsr3HDmObyMtsVcYqS29Qh5FEfklwrM5OXeUa/yjkcAwfr7TDpiyTfXvjkMR+Vw2A998qaBac5tAKHU1hq3i4oNwjRr9ofvayt/+Rk+yX/4iWA159KpXWKxJx/z0Bopfyw+g4=);strokeColor=#6c8ebf;spacingTop=-1;spacingBottom=-1;spacingLeft=-1;spacingRight=-1;points=[[0.5,1,0],[0.5,0,0],[0,0.5,0],[1,0.5,0]];labelBackgroundColor=none;rounded=1;html=1;whiteSpace=wrap;fontFamily=Calibri;" vertex="1" parent="S82p3zj0UuUOeoXFryLE-12">
            <mxGeometry x="84" y="506" width="101" height="38" as="geometry" />
          </mxCell>
        </UserObject>
        <mxCell id="S82p3zj0UuUOeoXFryLE-40" value="No" style="text;html=1;strokeColor=none;fillColor=none;align=center;verticalAlign=middle;whiteSpace=wrap;rounded=1;fontSize=11;fontFamily=Calibri;fontColor=#000000;" vertex="1" parent="S82p3zj0UuUOeoXFryLE-12">
          <mxGeometry x="94.5" y="173" width="33.49843260188088" height="18" as="geometry" />
        </mxCell>
        <mxCell id="S82p3zj0UuUOeoXFryLE-41" value="Yes" style="text;html=1;strokeColor=none;fillColor=none;align=center;verticalAlign=middle;whiteSpace=wrap;rounded=1;fontSize=11;fontFamily=Calibri;fontColor=#000000;" vertex="1" parent="S82p3zj0UuUOeoXFryLE-12">
          <mxGeometry x="141" y="293" width="33.49843260188088" height="18" as="geometry" />
        </mxCell>
        <mxCell id="S82p3zj0UuUOeoXFryLE-42" value="No" style="text;html=1;strokeColor=none;fillColor=none;align=center;verticalAlign=middle;whiteSpace=wrap;rounded=1;fontSize=11;fontFamily=Calibri;fontColor=#000000;" vertex="1" parent="S82p3zj0UuUOeoXFryLE-12">
          <mxGeometry x="50.5" y="261" width="33.49843260188088" height="18" as="geometry" />
        </mxCell>
        <mxCell id="S82p3zj0UuUOeoXFryLE-43" value="Else" style="text;html=1;strokeColor=none;fillColor=none;align=center;verticalAlign=middle;whiteSpace=wrap;rounded=1;fontSize=11;fontFamily=Calibri;fontColor=#000000;" vertex="1" parent="S82p3zj0UuUOeoXFryLE-12">
          <mxGeometry x="336" y="478" width="33.49843260188088" height="18" as="geometry" />
        </mxCell>
        <mxCell id="S82p3zj0UuUOeoXFryLE-44" style="edgeStyle=orthogonalEdgeStyle;rounded=0;orthogonalLoop=1;jettySize=auto;html=1;entryX=1;entryY=0.5;entryDx=0;entryDy=0;fontSize=12;startSize=8;endSize=8;" edge="1" parent="S82p3zj0UuUOeoXFryLE-12" source="S82p3zj0UuUOeoXFryLE-45" target="S82p3zj0UuUOeoXFryLE-34">
          <mxGeometry relative="1" as="geometry">
            <Array as="points">
              <mxPoint x="268" y="255" />
            </Array>
          </mxGeometry>
        </mxCell>
        <UserObject label="&lt;div style=&quot;font-size: 1px&quot;&gt;&lt;font style=&quot;font-size: 11.29px; direction: ltr; letter-spacing: 0px; line-height: 120%; opacity: 1;&quot;&gt;ChangeTemp(action)&lt;br&gt;&lt;/font&gt;&lt;/div&gt;" Function="EN_DIO_Error_T DIO_toggle(uint8_t pinNumber, EN_DIO_PORT_T portNumber);  " tags="Flowchart" id="S82p3zj0UuUOeoXFryLE-45">
          <mxCell style="verticalAlign=middle;align=center;overflow=width;vsdxID=274;fillColor=#d5e8d4;shape=stencil(nZBLDoAgDERP0z3SIyjew0SURgSD+Lu9kMZoXLhwN9O+tukAlrNpJg1SzDH4QW/URgNYgZTkjA4UkwJUgGXng+6DX1zLfmoymdXo17xh5zmRJ6Q42BWCfc2oJfdAr+Yv+AP9Cb7OJ3H/2JG1HNGz/84klThPVCc=);strokeColor=#82b366;spacingTop=-1;spacingBottom=-1;spacingLeft=-1;spacingRight=-1;points=[[0,0.5,0],[1,0.5,0],[0.5,1,0],[0.5,0,0]];labelBackgroundColor=none;rounded=1;html=1;whiteSpace=wrap;fontFamily=Calibri;" vertex="1" parent="S82p3zj0UuUOeoXFryLE-12">
            <mxGeometry x="214" y="421.5" width="101" height="33" as="geometry" />
          </mxCell>
        </UserObject>
        <mxCell id="S82p3zj0UuUOeoXFryLE-46" value="" style="edgeStyle=none;curved=1;rounded=0;orthogonalLoop=1;jettySize=auto;html=1;fontSize=12;startSize=8;endSize=8;" edge="1" parent="1" source="S82p3zj0UuUOeoXFryLE-48" target="S82p3zj0UuUOeoXFryLE-51">
          <mxGeometry relative="1" as="geometry" />
        </mxCell>
        <mxCell id="S82p3zj0UuUOeoXFryLE-47" style="edgeStyle=none;curved=1;rounded=0;orthogonalLoop=1;jettySize=auto;html=1;entryX=0;entryY=0.5;entryDx=0;entryDy=0;entryPerimeter=0;fontSize=12;startSize=8;endSize=8;" edge="1" parent="1" source="S82p3zj0UuUOeoXFryLE-48" target="S82p3zj0UuUOeoXFryLE-11">
          <mxGeometry relative="1" as="geometry" />
        </mxCell>
        <mxCell id="S82p3zj0UuUOeoXFryLE-48" value="Case&lt;br style=&quot;border-color: var(--border-color); font-size: 12px;&quot;&gt;&lt;span style=&quot;font-size: 12px;&quot;&gt;ADJUST&lt;/span&gt;" style="rhombus;whiteSpace=wrap;html=1;fontSize=12;fontFamily=Calibri;fillColor=#fff2cc;strokeColor=#d6b656;" vertex="1" parent="1">
          <mxGeometry x="-258.09000000000003" y="-743" width="80" height="80" as="geometry" />
        </mxCell>
        <mxCell id="S82p3zj0UuUOeoXFryLE-49" style="edgeStyle=none;curved=1;rounded=0;orthogonalLoop=1;jettySize=auto;html=1;fontSize=12;startSize=8;endSize=8;" edge="1" parent="1" source="S82p3zj0UuUOeoXFryLE-51" target="S82p3zj0UuUOeoXFryLE-53">
          <mxGeometry relative="1" as="geometry" />
        </mxCell>
        <mxCell id="S82p3zj0UuUOeoXFryLE-50" style="edgeStyle=orthogonalEdgeStyle;rounded=0;orthogonalLoop=1;jettySize=auto;html=1;entryX=0;entryY=0.5;entryDx=0;entryDy=0;entryPerimeter=0;fontSize=12;startSize=8;endSize=8;" edge="1" parent="1" source="S82p3zj0UuUOeoXFryLE-51" target="S82p3zj0UuUOeoXFryLE-9">
          <mxGeometry relative="1" as="geometry">
            <Array as="points">
              <mxPoint x="-218.09" y="-515" />
              <mxPoint x="-289.09000000000003" y="-515" />
              <mxPoint x="-289.09000000000003" y="-790" />
            </Array>
          </mxGeometry>
        </mxCell>
        <mxCell id="S82p3zj0UuUOeoXFryLE-51" value="Case&lt;br style=&quot;border-color: var(--border-color); font-size: 12px;&quot;&gt;&lt;span style=&quot;font-size: 12px;&quot;&gt;RUNNING&lt;/span&gt;" style="rhombus;whiteSpace=wrap;html=1;fontSize=12;fontFamily=Calibri;fillColor=#fff2cc;strokeColor=#d6b656;" vertex="1" parent="1">
          <mxGeometry x="-258.59000000000003" y="-616" width="80" height="80" as="geometry" />
        </mxCell>
        <mxCell id="S82p3zj0UuUOeoXFryLE-52" style="edgeStyle=orthogonalEdgeStyle;rounded=0;orthogonalLoop=1;jettySize=auto;html=1;entryX=1;entryY=0.5;entryDx=0;entryDy=0;entryPerimeter=0;fontSize=12;startSize=8;endSize=8;" edge="1" parent="1" source="S82p3zj0UuUOeoXFryLE-53" target="S82p3zj0UuUOeoXFryLE-9">
          <mxGeometry relative="1" as="geometry">
            <Array as="points">
              <mxPoint x="46.91" y="-576" />
              <mxPoint x="46.91" y="-790" />
            </Array>
          </mxGeometry>
        </mxCell>
        <UserObject label="&lt;div style=&quot;font-size: 1px&quot;&gt;&lt;font style=&quot;font-size: 11.29px; direction: ltr; letter-spacing: 0px; line-height: 120%; opacity: 1;&quot;&gt;Running Screen&lt;br&gt;&lt;/font&gt;&lt;/div&gt;" Function="EN_DIO_Error_T DIO_write(uint8_t pinNumber, EN_DIO_PORT_T portNumber, uint8_t value); " tags="Flowchart" id="S82p3zj0UuUOeoXFryLE-53">
          <mxCell style="verticalAlign=middle;align=center;overflow=width;vsdxID=235;shape=stencil(nZLRDsIgDEW/pq+GlRh9n/M/loyNRoSFodO/F9JMHWYm29u99LTkFkCWg657BSiG4N1FjdQEDfIEiGS18hSiAlmBLFvnVefdzTbs+zqRSV3dPU14cJ9IHSie7ArB/syoIfuFTsVN8B90I5hdH8UnY0vG8Ire9aUFFLjbr4iV0zN2Pvl4WDP5h15OlyWLIn/teMQ/RVYv);spacingTop=-1;spacingBottom=-1;spacingLeft=-1;spacingRight=-1;points=[[0,0.5,0],[1,0.5,0],[0.5,1,0],[0.5,0,0]];labelBackgroundColor=none;rounded=1;html=1;whiteSpace=wrap;fillColor=#ffe6cc;strokeColor=#d79b00;fontFamily=Calibri;" vertex="1" parent="1">
            <mxGeometry x="-116.09" y="-593.5" width="101" height="35" as="geometry" />
          </mxCell>
        </UserObject>
        <mxCell id="S82p3zj0UuUOeoXFryLE-54" value="Else" style="text;html=1;strokeColor=none;fillColor=none;align=center;verticalAlign=middle;whiteSpace=wrap;rounded=1;fontSize=11;fontFamily=Calibri;fontColor=#000000;" vertex="1" parent="1">
          <mxGeometry x="-276.09000000000003" y="-536" width="33.49843260188088" height="18" as="geometry" />
        </mxCell>
        <mxCell id="S82p3zj0UuUOeoXFryLE-55" value="&lt;font style=&quot;font-size: 14px;&quot;&gt;Running Screen&lt;br&gt;&lt;/font&gt;" style="swimlane;whiteSpace=wrap;html=1;rounded=1;fontSize=16;fontFamily=Calibri;fillColor=#ffe6cc;strokeColor=#d79b00;" vertex="1" parent="1">
          <mxGeometry x="-1109" y="-303" width="679" height="740" as="geometry">
            <mxRectangle x="-207" y="152.5" width="134" height="31" as="alternateBounds" />
          </mxGeometry>
        </mxCell>
        <mxCell id="S82p3zj0UuUOeoXFryLE-56" style="edgeStyle=none;curved=1;rounded=0;orthogonalLoop=1;jettySize=auto;html=1;entryX=0.5;entryY=0;entryDx=0;entryDy=0;entryPerimeter=0;fontSize=12;startSize=8;endSize=8;" edge="1" parent="S82p3zj0UuUOeoXFryLE-55" source="S82p3zj0UuUOeoXFryLE-57" target="S82p3zj0UuUOeoXFryLE-59">
          <mxGeometry relative="1" as="geometry" />
        </mxCell>
        <UserObject label="&lt;div style=&quot;font-size: 1px&quot;&gt;&lt;font style=&quot;font-size: 11.29px; direction: ltr; letter-spacing: 0px; line-height: 120%; opacity: 1;&quot;&gt;Start&lt;br&gt;&lt;/font&gt;&lt;/div&gt;" Function="EN_DIO_Error_T DIO_init(uint8_t pinNumber, EN_DIO_PORT_T portNumber, EN_DIO_DIRECTION_T direction);" tags="Flowchart" id="S82p3zj0UuUOeoXFryLE-57">
          <mxCell style="verticalAlign=middle;align=center;overflow=width;vsdxID=30;fillColor=#dae8fc;shape=stencil(tVLREoIgEPwaHnEQxsl3s/9gEpSJwDko7e+DsEkze2l627vdu5uFRaxyHe8FosR5sCcxqMZ3iO0Rpcp0ApQPCLEasUpaEC3Yi2lS3fOojOhsr3HDmObyMtsVcYqS29Qh5FEfklwrM5OXeUa/yjkcAwfr7TDpiyTfXvjkMR+Vw2A998qaBac5tAKHU1hq3i4oNwjRr9ofvayt/+Rk+yX/4iWA159KpXWKxJx/z0Bopfyw+g4=);strokeColor=#6c8ebf;spacingTop=-1;spacingBottom=-1;spacingLeft=-1;spacingRight=-1;points=[[0.5,1,0],[0.5,0,0],[0,0.5,0],[1,0.5,0]];labelBackgroundColor=none;rounded=1;html=1;whiteSpace=wrap;fontFamily=Calibri;" vertex="1" parent="S82p3zj0UuUOeoXFryLE-55">
            <mxGeometry x="198" y="33" width="101" height="38" as="geometry" />
          </mxCell>
        </UserObject>
        <UserObject label="" Function="EN_DIO_Error_T DIO_write(uint8_t pinNumber, EN_DIO_PORT_T portNumber, uint8_t value); " tags="Flowchart" id="S82p3zj0UuUOeoXFryLE-58">
          <mxCell style="vsdxID=281;fillColor=#e1d5e7;shape=stencil(UzV2Ls5ILEhVNTIoLinKz04tz0wpyVA1dlE1MsrMy0gtyiwBslSNXVWNndPyi1LTi/JL81Ig/IJEkEoQKze/DGRCBUSfrqGFnrkpSJuRQSVEyNDAAMx3g6jPycxDUm9hqGdEgnJDTOPxqSZFMWGXAxkIb6dl5uRAQg1ZHj2YgEKQIDZ2BQA=);strokeColor=#9673a6;spacingTop=-1;spacingBottom=-1;spacingLeft=-1;spacingRight=-1;points=[[0,0.5,0],[1,0.5,0],[0.5,1,0],[0.5,0,0]];labelBackgroundColor=none;rounded=1;html=1;whiteSpace=wrap;fontFamily=Calibri;" vertex="1" parent="S82p3zj0UuUOeoXFryLE-55">
            <mxGeometry x="197.5" y="90" width="101" height="50" as="geometry" />
          </mxCell>
        </UserObject>
        <mxCell id="S82p3zj0UuUOeoXFryLE-59" value="&lt;div style=&quot;font-size: 1px&quot;&gt;&lt;font style=&quot;font-size: 11.29px; direction: ltr; letter-spacing: 0px; line-height: 120%; opacity: 1;&quot;&gt;get current temp from TSI&lt;br&gt;&lt;/font&gt;&lt;/div&gt;" style="text;vsdxID=281;fillColor=none;gradientColor=none;strokeColor=none;spacingTop=-1;spacingBottom=-1;spacingLeft=-1;spacingRight=-1;points=[[0,0.5,0],[1,0.5,0],[0.5,1,0],[0.5,0,0]];labelBackgroundColor=none;rounded=1;html=1;whiteSpace=wrap;verticalAlign=middle;align=center;overflow=width;;html=1;fontColor=#000000;fontFamily=Calibri;" vertex="1" parent="S82p3zj0UuUOeoXFryLE-58">
          <mxGeometry x="16.93" y="-0.13157894736842107" width="67.73" height="50.131578947368425" as="geometry" />
        </mxCell>
        <UserObject label="" Function="EN_DIO_Error_T DIO_write(uint8_t pinNumber, EN_DIO_PORT_T portNumber, uint8_t value); " tags="Flowchart" id="S82p3zj0UuUOeoXFryLE-60">
          <mxCell style="vsdxID=281;fillColor=#e1d5e7;shape=stencil(UzV2Ls5ILEhVNTIoLinKz04tz0wpyVA1dlE1MsrMy0gtyiwBslSNXVWNndPyi1LTi/JL81Ig/IJEkEoQKze/DGRCBUSfrqGFnrkpSJuRQSVEyNDAAMx3g6jPycxDUm9hqGdEgnJDTOPxqSZFMWGXAxkIb6dl5uRAQg1ZHj2YgEKQIDZ2BQA=);strokeColor=#9673a6;spacingTop=-1;spacingBottom=-1;spacingLeft=-1;spacingRight=-1;points=[[0,0.5,0],[1,0.5,0],[0.5,1,0],[0.5,0,0]];labelBackgroundColor=none;rounded=1;html=1;whiteSpace=wrap;fontFamily=Calibri;" vertex="1" parent="S82p3zj0UuUOeoXFryLE-55">
            <mxGeometry x="197.5" y="174" width="101" height="50" as="geometry" />
          </mxCell>
        </UserObject>
        <mxCell id="S82p3zj0UuUOeoXFryLE-61" value="&lt;div style=&quot;font-size: 1px&quot;&gt;&lt;font style=&quot;font-size: 11.29px; direction: ltr; letter-spacing: 0px; line-height: 120%; opacity: 1;&quot;&gt;update current temp on UI (LCD)&lt;br&gt;&lt;/font&gt;&lt;/div&gt;" style="text;vsdxID=281;fillColor=none;gradientColor=none;strokeColor=none;spacingTop=-1;spacingBottom=-1;spacingLeft=-1;spacingRight=-1;points=[[0,0.5,0],[1,0.5,0],[0.5,1,0],[0.5,0,0]];labelBackgroundColor=none;rounded=1;html=1;whiteSpace=wrap;verticalAlign=middle;align=center;overflow=width;;html=1;fontColor=#000000;fontFamily=Calibri;" vertex="1" parent="S82p3zj0UuUOeoXFryLE-60">
          <mxGeometry x="16.93" y="-0.13157894736842107" width="67.73" height="50.131578947368425" as="geometry" />
        </mxCell>
        <mxCell id="S82p3zj0UuUOeoXFryLE-62" style="edgeStyle=none;curved=1;rounded=0;orthogonalLoop=1;jettySize=auto;html=1;entryX=0.5;entryY=0;entryDx=0;entryDy=0;entryPerimeter=0;fontSize=12;startSize=8;endSize=8;" edge="1" parent="S82p3zj0UuUOeoXFryLE-55" source="S82p3zj0UuUOeoXFryLE-59" target="S82p3zj0UuUOeoXFryLE-61">
          <mxGeometry relative="1" as="geometry" />
        </mxCell>
        <mxCell id="S82p3zj0UuUOeoXFryLE-63" style="edgeStyle=none;curved=1;rounded=0;orthogonalLoop=1;jettySize=auto;html=1;fontSize=12;startSize=8;endSize=8;entryX=0.5;entryY=0;entryDx=0;entryDy=0;entryPerimeter=0;" edge="1" parent="S82p3zj0UuUOeoXFryLE-55" source="S82p3zj0UuUOeoXFryLE-64" target="S82p3zj0UuUOeoXFryLE-69">
          <mxGeometry relative="1" as="geometry">
            <mxPoint x="249" y="379" as="targetPoint" />
          </mxGeometry>
        </mxCell>
        <mxCell id="S82p3zj0UuUOeoXFryLE-64" value="Current &lt;br&gt;temp&lt;br&gt;high than&lt;br&gt;desired" style="rhombus;whiteSpace=wrap;html=1;fontSize=12;fontFamily=Calibri;fillColor=#fff2cc;strokeColor=#d6b656;" vertex="1" parent="S82p3zj0UuUOeoXFryLE-55">
          <mxGeometry x="204" y="248" width="88" height="88" as="geometry" />
        </mxCell>
        <mxCell id="S82p3zj0UuUOeoXFryLE-65" style="edgeStyle=none;curved=1;rounded=0;orthogonalLoop=1;jettySize=auto;html=1;entryX=0.5;entryY=0;entryDx=0;entryDy=0;fontSize=12;startSize=8;endSize=8;" edge="1" parent="S82p3zj0UuUOeoXFryLE-55" source="S82p3zj0UuUOeoXFryLE-61" target="S82p3zj0UuUOeoXFryLE-64">
          <mxGeometry relative="1" as="geometry" />
        </mxCell>
        <mxCell id="S82p3zj0UuUOeoXFryLE-66" value="True" style="text;html=1;strokeColor=none;fillColor=none;align=center;verticalAlign=middle;whiteSpace=wrap;rounded=1;fontSize=11;fontFamily=Calibri;fontColor=#000000;" vertex="1" parent="S82p3zj0UuUOeoXFryLE-55">
          <mxGeometry x="180.5" y="271" width="33.49843260188088" height="18" as="geometry" />
        </mxCell>
        <mxCell id="S82p3zj0UuUOeoXFryLE-67" value="False" style="text;html=1;strokeColor=none;fillColor=none;align=center;verticalAlign=middle;whiteSpace=wrap;rounded=1;fontSize=11;fontFamily=Calibri;fontColor=#000000;" vertex="1" parent="S82p3zj0UuUOeoXFryLE-55">
          <mxGeometry x="214" y="347" width="33.49843260188088" height="18" as="geometry" />
        </mxCell>
        <UserObject label="" Function="EN_DIO_Error_T DIO_write(uint8_t pinNumber, EN_DIO_PORT_T portNumber, uint8_t value); " tags="Flowchart" id="S82p3zj0UuUOeoXFryLE-68">
          <mxCell style="vsdxID=281;fillColor=#e1d5e7;shape=stencil(UzV2Ls5ILEhVNTIoLinKz04tz0wpyVA1dlE1MsrMy0gtyiwBslSNXVWNndPyi1LTi/JL81Ig/IJEkEoQKze/DGRCBUSfrqGFnrkpSJuRQSVEyNDAAMx3g6jPycxDUm9hqGdEgnJDTOPxqSZFMWGXAxkIb6dl5uRAQg1ZHj2YgEKQIDZ2BQA=);strokeColor=#9673a6;spacingTop=-1;spacingBottom=-1;spacingLeft=-1;spacingRight=-1;points=[[0,0.5,0],[1,0.5,0],[0.5,1,0],[0.5,0,0]];labelBackgroundColor=none;rounded=1;html=1;whiteSpace=wrap;fontFamily=Calibri;" vertex="1" parent="S82p3zj0UuUOeoXFryLE-55">
            <mxGeometry x="182.39" y="372" width="131.21" height="58" as="geometry" />
          </mxCell>
        </UserObject>
        <mxCell id="S82p3zj0UuUOeoXFryLE-69" value="&lt;div style=&quot;font-size: 1px&quot;&gt;&lt;font style=&quot;font-size: 11.29px; direction: ltr; letter-spacing: 0px; line-height: 120%; opacity: 1;&quot;&gt;hide buzzer icon&lt;br&gt;turn buzzer off&lt;/font&gt;&lt;/div&gt;" style="text;vsdxID=281;fillColor=none;gradientColor=none;strokeColor=none;spacingTop=-1;spacingBottom=-1;spacingLeft=-1;spacingRight=-1;points=[[0,0.5,0],[1,0.5,0],[0.5,1,0],[0.5,0,0]];labelBackgroundColor=none;rounded=1;html=1;whiteSpace=wrap;verticalAlign=middle;align=center;overflow=width;;html=1;fontColor=#000000;fontFamily=Calibri;" vertex="1" parent="S82p3zj0UuUOeoXFryLE-68">
          <mxGeometry x="21.99391386138614" y="-0.15263157894736842" width="87.98864653465347" height="58.15263157894737" as="geometry" />
        </mxCell>
        <mxCell id="S82p3zj0UuUOeoXFryLE-70" style="edgeStyle=none;curved=1;rounded=0;orthogonalLoop=1;jettySize=auto;html=1;entryX=0;entryY=0.5;entryDx=0;entryDy=0;fontSize=12;startSize=8;endSize=8;" edge="1" parent="S82p3zj0UuUOeoXFryLE-55" source="S82p3zj0UuUOeoXFryLE-72" target="S82p3zj0UuUOeoXFryLE-76">
          <mxGeometry relative="1" as="geometry" />
        </mxCell>
        <mxCell id="S82p3zj0UuUOeoXFryLE-71" style="edgeStyle=none;curved=1;rounded=0;orthogonalLoop=1;jettySize=auto;html=1;entryX=0.5;entryY=0;entryDx=0;entryDy=0;entryPerimeter=0;fontSize=12;startSize=8;endSize=8;" edge="1" parent="S82p3zj0UuUOeoXFryLE-55" source="S82p3zj0UuUOeoXFryLE-72" target="S82p3zj0UuUOeoXFryLE-90">
          <mxGeometry relative="1" as="geometry" />
        </mxCell>
        <mxCell id="S82p3zj0UuUOeoXFryLE-72" value="Keypad&lt;br&gt;key pressed" style="rhombus;whiteSpace=wrap;html=1;fontSize=12;fontFamily=Calibri;fillColor=#fff2cc;strokeColor=#d6b656;" vertex="1" parent="S82p3zj0UuUOeoXFryLE-55">
          <mxGeometry x="204" y="469" width="88" height="88" as="geometry" />
        </mxCell>
        <mxCell id="S82p3zj0UuUOeoXFryLE-73" style="edgeStyle=none;curved=1;rounded=0;orthogonalLoop=1;jettySize=auto;html=1;entryX=0.5;entryY=0;entryDx=0;entryDy=0;fontSize=12;startSize=8;endSize=8;" edge="1" parent="S82p3zj0UuUOeoXFryLE-55" source="S82p3zj0UuUOeoXFryLE-69" target="S82p3zj0UuUOeoXFryLE-72">
          <mxGeometry relative="1" as="geometry" />
        </mxCell>
        <mxCell id="S82p3zj0UuUOeoXFryLE-74" value="" style="edgeStyle=none;curved=1;rounded=0;orthogonalLoop=1;jettySize=auto;html=1;fontSize=12;startSize=8;endSize=8;" edge="1" parent="S82p3zj0UuUOeoXFryLE-55" source="S82p3zj0UuUOeoXFryLE-76" target="S82p3zj0UuUOeoXFryLE-80">
          <mxGeometry relative="1" as="geometry" />
        </mxCell>
        <mxCell id="S82p3zj0UuUOeoXFryLE-75" style="edgeStyle=none;curved=1;rounded=0;orthogonalLoop=1;jettySize=auto;html=1;entryX=0;entryY=0.5;entryDx=0;entryDy=0;entryPerimeter=0;fontSize=12;startSize=8;endSize=8;" edge="1" parent="S82p3zj0UuUOeoXFryLE-55" source="S82p3zj0UuUOeoXFryLE-76" target="S82p3zj0UuUOeoXFryLE-89">
          <mxGeometry relative="1" as="geometry" />
        </mxCell>
        <mxCell id="S82p3zj0UuUOeoXFryLE-76" value="BTN_ADJUST" style="rhombus;whiteSpace=wrap;html=1;fontSize=12;fontFamily=Calibri;fillColor=#fff2cc;strokeColor=#d6b656;" vertex="1" parent="S82p3zj0UuUOeoXFryLE-55">
          <mxGeometry x="340" y="469" width="88" height="88" as="geometry" />
        </mxCell>
        <mxCell id="S82p3zj0UuUOeoXFryLE-77" value="Yes" style="text;html=1;strokeColor=none;fillColor=none;align=center;verticalAlign=middle;whiteSpace=wrap;rounded=1;fontSize=11;fontFamily=Calibri;fontColor=#000000;" vertex="1" parent="S82p3zj0UuUOeoXFryLE-55">
          <mxGeometry x="299" y="487" width="33.49843260188088" height="18" as="geometry" />
        </mxCell>
        <mxCell id="S82p3zj0UuUOeoXFryLE-78" style="edgeStyle=none;curved=1;rounded=0;orthogonalLoop=1;jettySize=auto;html=1;entryX=0;entryY=0.5;entryDx=0;entryDy=0;entryPerimeter=0;fontSize=12;startSize=8;endSize=8;" edge="1" parent="S82p3zj0UuUOeoXFryLE-55" source="S82p3zj0UuUOeoXFryLE-80" target="S82p3zj0UuUOeoXFryLE-82">
          <mxGeometry relative="1" as="geometry" />
        </mxCell>
        <mxCell id="S82p3zj0UuUOeoXFryLE-79" style="edgeStyle=orthogonalEdgeStyle;rounded=0;orthogonalLoop=1;jettySize=auto;html=1;entryX=1;entryY=0.5;entryDx=0;entryDy=0;entryPerimeter=0;fontSize=12;startSize=8;endSize=8;" edge="1" parent="S82p3zj0UuUOeoXFryLE-55" source="S82p3zj0UuUOeoXFryLE-80" target="S82p3zj0UuUOeoXFryLE-90">
          <mxGeometry relative="1" as="geometry">
            <Array as="points">
              <mxPoint x="384" y="706" />
            </Array>
          </mxGeometry>
        </mxCell>
        <mxCell id="S82p3zj0UuUOeoXFryLE-80" value="BTN_RESET" style="rhombus;whiteSpace=wrap;html=1;fontSize=12;fontFamily=Calibri;fillColor=#fff2cc;strokeColor=#d6b656;" vertex="1" parent="S82p3zj0UuUOeoXFryLE-55">
          <mxGeometry x="340" y="575" width="88" height="88" as="geometry" />
        </mxCell>
        <mxCell id="S82p3zj0UuUOeoXFryLE-81" style="edgeStyle=none;curved=1;rounded=0;orthogonalLoop=1;jettySize=auto;html=1;fontSize=12;startSize=8;endSize=8;" edge="1" parent="S82p3zj0UuUOeoXFryLE-55" source="S82p3zj0UuUOeoXFryLE-82">
          <mxGeometry relative="1" as="geometry">
            <mxPoint x="625.5714285714284" y="619" as="targetPoint" />
          </mxGeometry>
        </mxCell>
        <UserObject label="&lt;div style=&quot;font-size: 1px&quot;&gt;&lt;font style=&quot;font-size: 11.29px; direction: ltr; letter-spacing: 0px; line-height: 120%; opacity: 1;&quot;&gt;APP_resetToDefault()&lt;/font&gt;&lt;/div&gt;" Function="EN_DIO_Error_T DIO_toggle(uint8_t pinNumber, EN_DIO_PORT_T portNumber);  " tags="Flowchart" id="S82p3zj0UuUOeoXFryLE-82">
          <mxCell style="verticalAlign=middle;align=center;overflow=width;vsdxID=274;fillColor=#d5e8d4;shape=stencil(nZBLDoAgDERP0z3SIyjew0SURgSD+Lu9kMZoXLhwN9O+tukAlrNpJg1SzDH4QW/URgNYgZTkjA4UkwJUgGXng+6DX1zLfmoymdXo17xh5zmRJ6Q42BWCfc2oJfdAr+Yv+AP9Cb7OJ3H/2JG1HNGz/84klThPVCc=);strokeColor=#82b366;spacingTop=-1;spacingBottom=-1;spacingLeft=-1;spacingRight=-1;points=[[0,0.5,0],[1,0.5,0],[0.5,1,0],[0.5,0,0]];labelBackgroundColor=none;rounded=1;html=1;whiteSpace=wrap;fontFamily=Calibri;" vertex="1" parent="S82p3zj0UuUOeoXFryLE-55">
            <mxGeometry x="469" y="602.5" width="113" height="33" as="geometry" />
          </mxCell>
        </UserObject>
        <mxCell id="S82p3zj0UuUOeoXFryLE-83" value="No" style="text;html=1;strokeColor=none;fillColor=none;align=center;verticalAlign=middle;whiteSpace=wrap;rounded=1;fontSize=11;fontFamily=Calibri;fontColor=#000000;" vertex="1" parent="S82p3zj0UuUOeoXFryLE-55">
          <mxGeometry x="204" y="563" width="33.49843260188088" height="18" as="geometry" />
        </mxCell>
        <mxCell id="S82p3zj0UuUOeoXFryLE-84" value="No" style="text;html=1;strokeColor=none;fillColor=none;align=center;verticalAlign=middle;whiteSpace=wrap;rounded=1;fontSize=11;fontFamily=Calibri;fontColor=#000000;" vertex="1" parent="S82p3zj0UuUOeoXFryLE-55">
          <mxGeometry x="346" y="557" width="33.49843260188088" height="18" as="geometry" />
        </mxCell>
        <mxCell id="S82p3zj0UuUOeoXFryLE-85" value="Yes" style="text;html=1;strokeColor=none;fillColor=none;align=center;verticalAlign=middle;whiteSpace=wrap;rounded=1;fontSize=11;fontFamily=Calibri;fontColor=#000000;" vertex="1" parent="S82p3zj0UuUOeoXFryLE-55">
          <mxGeometry x="426" y="492" width="33.49843260188088" height="18" as="geometry" />
        </mxCell>
        <mxCell id="S82p3zj0UuUOeoXFryLE-86" value="Yes" style="text;html=1;strokeColor=none;fillColor=none;align=center;verticalAlign=middle;whiteSpace=wrap;rounded=1;fontSize=11;fontFamily=Calibri;fontColor=#000000;" vertex="1" parent="S82p3zj0UuUOeoXFryLE-55">
          <mxGeometry x="426" y="600" width="33.49843260188088" height="18" as="geometry" />
        </mxCell>
        <mxCell id="S82p3zj0UuUOeoXFryLE-87" value="No" style="text;html=1;strokeColor=none;fillColor=none;align=center;verticalAlign=middle;whiteSpace=wrap;rounded=1;fontSize=11;fontFamily=Calibri;fontColor=#000000;" vertex="1" parent="S82p3zj0UuUOeoXFryLE-55">
          <mxGeometry x="336" y="654" width="33.49843260188088" height="18" as="geometry" />
        </mxCell>
        <mxCell id="S82p3zj0UuUOeoXFryLE-88" style="edgeStyle=orthogonalEdgeStyle;rounded=0;orthogonalLoop=1;jettySize=auto;html=1;fontSize=12;startSize=8;endSize=8;" edge="1" parent="S82p3zj0UuUOeoXFryLE-55" source="S82p3zj0UuUOeoXFryLE-89">
          <mxGeometry relative="1" as="geometry">
            <mxPoint x="383.2857142857142" y="706.2857142857142" as="targetPoint" />
            <Array as="points">
              <mxPoint x="624" y="513" />
              <mxPoint x="624" y="706" />
            </Array>
          </mxGeometry>
        </mxCell>
        <UserObject label="&lt;div style=&quot;font-size: 1px&quot;&gt;&lt;font style=&quot;font-size: 11.29px; direction: ltr; letter-spacing: 0px; line-height: 120%; opacity: 1;&quot;&gt;APP_switchState(Adjust)&lt;/font&gt;&lt;/div&gt;" Function="EN_DIO_Error_T DIO_toggle(uint8_t pinNumber, EN_DIO_PORT_T portNumber);  " tags="Flowchart" id="S82p3zj0UuUOeoXFryLE-89">
          <mxCell style="verticalAlign=middle;align=center;overflow=width;vsdxID=274;fillColor=#d5e8d4;shape=stencil(nZBLDoAgDERP0z3SIyjew0SURgSD+Lu9kMZoXLhwN9O+tukAlrNpJg1SzDH4QW/URgNYgZTkjA4UkwJUgGXng+6DX1zLfmoymdXo17xh5zmRJ6Q42BWCfc2oJfdAr+Yv+AP9Cb7OJ3H/2JG1HNGz/84klThPVCc=);strokeColor=#82b366;spacingTop=-1;spacingBottom=-1;spacingLeft=-1;spacingRight=-1;points=[[0,0.5,0],[1,0.5,0],[0.5,1,0],[0.5,0,0]];labelBackgroundColor=none;rounded=1;html=1;whiteSpace=wrap;fontFamily=Calibri;" vertex="1" parent="S82p3zj0UuUOeoXFryLE-55">
            <mxGeometry x="469" y="496.5" width="113" height="33" as="geometry" />
          </mxCell>
        </UserObject>
        <UserObject label="&lt;div style=&quot;font-size: 1px&quot;&gt;&lt;font style=&quot;font-size: 11.29px; direction: ltr; letter-spacing: 0px; line-height: 120%; opacity: 1;&quot;&gt;END&lt;br&gt;&lt;/font&gt;&lt;/div&gt;" Function="EN_DIO_Error_T DIO_init(uint8_t pinNumber, EN_DIO_PORT_T portNumber, EN_DIO_DIRECTION_T direction);" tags="Flowchart" id="S82p3zj0UuUOeoXFryLE-90">
          <mxCell style="verticalAlign=middle;align=center;overflow=width;vsdxID=30;fillColor=#dae8fc;shape=stencil(tVLREoIgEPwaHnEQxsl3s/9gEpSJwDko7e+DsEkze2l627vdu5uFRaxyHe8FosR5sCcxqMZ3iO0Rpcp0ApQPCLEasUpaEC3Yi2lS3fOojOhsr3HDmObyMtsVcYqS29Qh5FEfklwrM5OXeUa/yjkcAwfr7TDpiyTfXvjkMR+Vw2A998qaBac5tAKHU1hq3i4oNwjRr9ofvayt/+Rk+yX/4iWA159KpXWKxJx/z0Bopfyw+g4=);strokeColor=#6c8ebf;spacingTop=-1;spacingBottom=-1;spacingLeft=-1;spacingRight=-1;points=[[0.5,1,0],[0.5,0,0],[0,0.5,0],[1,0.5,0]];labelBackgroundColor=none;rounded=1;html=1;whiteSpace=wrap;fontFamily=Calibri;" vertex="1" parent="S82p3zj0UuUOeoXFryLE-55">
            <mxGeometry x="197.5" y="687" width="101" height="38" as="geometry" />
          </mxCell>
        </UserObject>
        <mxCell id="S82p3zj0UuUOeoXFryLE-91" style="edgeStyle=none;curved=1;rounded=0;orthogonalLoop=1;jettySize=auto;html=1;entryX=0.5;entryY=0;entryDx=0;entryDy=0;fontSize=12;startSize=8;endSize=8;" edge="1" parent="1" source="S82p3zj0UuUOeoXFryLE-92" target="S82p3zj0UuUOeoXFryLE-95">
          <mxGeometry relative="1" as="geometry" />
        </mxCell>
        <UserObject label="&lt;div style=&quot;font-size: 1px&quot;&gt;&lt;font style=&quot;font-size: 11.29px; direction: ltr; letter-spacing: 0px; line-height: 120%; opacity: 1;&quot;&gt;Start&lt;br&gt;&lt;/font&gt;&lt;/div&gt;" Function="EN_DIO_Error_T DIO_init(uint8_t pinNumber, EN_DIO_PORT_T portNumber, EN_DIO_DIRECTION_T direction);" tags="Flowchart" id="S82p3zj0UuUOeoXFryLE-92">
          <mxCell style="verticalAlign=middle;align=center;overflow=width;vsdxID=30;fillColor=#dae8fc;shape=stencil(tVLREoIgEPwaHnEQxsl3s/9gEpSJwDko7e+DsEkze2l627vdu5uFRaxyHe8FosR5sCcxqMZ3iO0Rpcp0ApQPCLEasUpaEC3Yi2lS3fOojOhsr3HDmObyMtsVcYqS29Qh5FEfklwrM5OXeUa/yjkcAwfr7TDpiyTfXvjkMR+Vw2A998qaBac5tAKHU1hq3i4oNwjRr9ofvayt/+Rk+yX/4iWA159KpXWKxJx/z0Bopfyw+g4=);strokeColor=#6c8ebf;spacingTop=-1;spacingBottom=-1;spacingLeft=-1;spacingRight=-1;points=[[0.5,1,0],[0.5,0,0],[0,0.5,0],[1,0.5,0]];labelBackgroundColor=none;rounded=1;html=1;whiteSpace=wrap;fontFamily=Calibri;" vertex="1" parent="1">
            <mxGeometry x="171.66" y="-883" width="101" height="38" as="geometry" />
          </mxCell>
        </UserObject>
        <mxCell id="S82p3zj0UuUOeoXFryLE-93" style="edgeStyle=none;curved=1;rounded=0;orthogonalLoop=1;jettySize=auto;html=1;entryX=0;entryY=0.5;entryDx=0;entryDy=0;entryPerimeter=0;fontSize=12;startSize=8;endSize=8;" edge="1" parent="1" source="S82p3zj0UuUOeoXFryLE-95">
          <mxGeometry relative="1" as="geometry">
            <mxPoint x="366.90999999999997" y="-729.5000000000001" as="targetPoint" />
          </mxGeometry>
        </mxCell>
        <mxCell id="S82p3zj0UuUOeoXFryLE-94" style="edgeStyle=none;curved=1;rounded=0;orthogonalLoop=1;jettySize=auto;html=1;fontSize=12;startSize=8;endSize=8;" edge="1" parent="1" source="S82p3zj0UuUOeoXFryLE-95" target="S82p3zj0UuUOeoXFryLE-98">
          <mxGeometry relative="1" as="geometry" />
        </mxCell>
        <mxCell id="S82p3zj0UuUOeoXFryLE-95" value="(action is&lt;br style=&quot;border-color: var(--border-color);&quot;&gt;&lt;b style=&quot;border-color: var(--border-color);&quot;&gt;&lt;font color=&quot;#007fff&quot;&gt;increment&lt;/font&gt;&lt;/b&gt;&lt;br style=&quot;border-color: var(--border-color);&quot;&gt;&lt;b&gt;and&amp;nbsp; &lt;/b&gt;current desired&lt;br style=&quot;border-color: var(--border-color);&quot;&gt;temp is&amp;nbsp;&lt;b style=&quot;border-color: var(--border-color);&quot;&gt;&lt;font color=&quot;#007fff&quot;&gt;MAX TEMP&lt;/font&gt;&lt;/b&gt;&lt;span style=&quot;border-color: var(--border-color);&quot;&gt;)&lt;/span&gt;&lt;br&gt;&lt;b&gt;or &lt;/b&gt;(action is &lt;b&gt;&lt;font color=&quot;#007fff&quot;&gt;decrement&lt;/font&gt;&lt;/b&gt;&lt;br style=&quot;border-color: var(--border-color);&quot;&gt;&lt;b&gt;and &lt;/b&gt;current&amp;nbsp;desired&lt;br style=&quot;border-color: var(--border-color);&quot;&gt;temp is&lt;br style=&quot;border-color: var(--border-color);&quot;&gt;&lt;b&gt;&lt;font color=&quot;#007fff&quot;&gt;MIN_TEMP&lt;/font&gt;&lt;/b&gt;)" style="rhombus;whiteSpace=wrap;html=1;fontSize=12;fontFamily=Calibri;fillColor=#fff2cc;strokeColor=#d6b656;" vertex="1" parent="1">
          <mxGeometry x="135.91" y="-814" width="172.5" height="169" as="geometry" />
        </mxCell>
        <mxCell id="S82p3zj0UuUOeoXFryLE-96" value="True" style="text;html=1;strokeColor=none;fillColor=none;align=center;verticalAlign=middle;whiteSpace=wrap;rounded=1;fontSize=11;fontFamily=Calibri;fontColor=#000000;" vertex="1" parent="1">
          <mxGeometry x="322.90999999999997" y="-746" width="33.49843260188088" height="18" as="geometry" />
        </mxCell>
        <mxCell id="S82p3zj0UuUOeoXFryLE-97" style="edgeStyle=none;curved=1;rounded=0;orthogonalLoop=1;jettySize=auto;html=1;entryX=0.5;entryY=0;entryDx=0;entryDy=0;entryPerimeter=0;fontSize=12;startSize=8;endSize=8;" edge="1" parent="1" source="S82p3zj0UuUOeoXFryLE-98">
          <mxGeometry relative="1" as="geometry">
            <mxPoint x="222.1650000000001" y="-523" as="targetPoint" />
          </mxGeometry>
        </mxCell>
        <UserObject label="&lt;div style=&quot;font-size: 1px&quot;&gt;&lt;font style=&quot;font-size: 11.29px; direction: ltr; letter-spacing: 0px; line-height: 120%; opacity: 1;&quot;&gt;update desired temp variable&lt;br&gt;&lt;/font&gt;&lt;/div&gt;" Function="EN_DIO_Error_T DIO_toggle(uint8_t pinNumber, EN_DIO_PORT_T portNumber);  " tags="Flowchart" id="S82p3zj0UuUOeoXFryLE-98">
          <mxCell style="verticalAlign=middle;align=center;overflow=width;vsdxID=274;fillColor=#d5e8d4;shape=stencil(nZBLDoAgDERP0z3SIyjew0SURgSD+Lu9kMZoXLhwN9O+tukAlrNpJg1SzDH4QW/URgNYgZTkjA4UkwJUgGXng+6DX1zLfmoymdXo17xh5zmRJ6Q42BWCfc2oJfdAr+Yv+AP9Cb7OJ3H/2JG1HNGz/84klThPVCc=);strokeColor=#82b366;spacingTop=-1;spacingBottom=-1;spacingLeft=-1;spacingRight=-1;points=[[0,0.5,0],[1,0.5,0],[0.5,1,0],[0.5,0,0]];labelBackgroundColor=none;rounded=1;html=1;whiteSpace=wrap;fontFamily=Calibri;" vertex="1" parent="1">
            <mxGeometry x="141.04" y="-591.5" width="162.25" height="33" as="geometry" />
          </mxCell>
        </UserObject>
        <mxCell id="S82p3zj0UuUOeoXFryLE-99" style="edgeStyle=none;curved=1;rounded=0;orthogonalLoop=1;jettySize=auto;html=1;fontSize=12;startSize=8;endSize=8;entryX=0;entryY=0.5;entryDx=0;entryDy=0;entryPerimeter=0;" edge="1" parent="1" source="S82p3zj0UuUOeoXFryLE-100" target="S82p3zj0UuUOeoXFryLE-104">
          <mxGeometry relative="1" as="geometry">
            <mxPoint x="343.4857575757575" y="-498" as="targetPoint" />
          </mxGeometry>
        </mxCell>
        <UserObject label="" Function="EN_DIO_Error_T DIO_write(uint8_t pinNumber, EN_DIO_PORT_T portNumber, uint8_t value); " tags="Flowchart" id="S82p3zj0UuUOeoXFryLE-100">
          <mxCell style="vsdxID=281;fillColor=#e1d5e7;shape=stencil(UzV2Ls5ILEhVNTIoLinKz04tz0wpyVA1dlE1MsrMy0gtyiwBslSNXVWNndPyi1LTi/JL81Ig/IJEkEoQKze/DGRCBUSfrqGFnrkpSJuRQSVEyNDAAMx3g6jPycxDUm9hqGdEgnJDTOPxqSZFMWGXAxkIb6dl5uRAQg1ZHj2YgEKQIDZ2BQA=);strokeColor=#9673a6;spacingTop=-1;spacingBottom=-1;spacingLeft=-1;spacingRight=-1;points=[[0,0.5,0],[1,0.5,0],[0.5,1,0],[0.5,0,0]];labelBackgroundColor=none;rounded=1;html=1;whiteSpace=wrap;fontFamily=Calibri;" vertex="1" parent="1">
            <mxGeometry x="171.66" y="-523" width="101" height="50" as="geometry" />
          </mxCell>
        </UserObject>
        <mxCell id="S82p3zj0UuUOeoXFryLE-101" value="&lt;div style=&quot;font-size: 1px&quot;&gt;&lt;font style=&quot;font-size: 11.29px; direction: ltr; letter-spacing: 0px; line-height: 120%; opacity: 1;&quot;&gt;update temp UI (LCD)&lt;br&gt;&lt;/font&gt;&lt;/div&gt;" style="text;vsdxID=281;fillColor=none;gradientColor=none;strokeColor=none;spacingTop=-1;spacingBottom=-1;spacingLeft=-1;spacingRight=-1;points=[[0,0.5,0],[1,0.5,0],[0.5,1,0],[0.5,0,0]];labelBackgroundColor=none;rounded=1;html=1;whiteSpace=wrap;verticalAlign=middle;align=center;overflow=width;;html=1;fontColor=#000000;fontFamily=Calibri;" vertex="1" parent="S82p3zj0UuUOeoXFryLE-100">
          <mxGeometry x="16.93" y="-0.13157894736842107" width="67.73" height="50.131578947368425" as="geometry" />
        </mxCell>
        <UserObject label="" Function="EN_DIO_Error_T DIO_write(uint8_t pinNumber, EN_DIO_PORT_T portNumber, uint8_t value); " tags="Flowchart" id="S82p3zj0UuUOeoXFryLE-102">
          <mxCell style="vsdxID=281;fillColor=#e1d5e7;shape=stencil(UzV2Ls5ILEhVNTIoLinKz04tz0wpyVA1dlE1MsrMy0gtyiwBslSNXVWNndPyi1LTi/JL81Ig/IJEkEoQKze/DGRCBUSfrqGFnrkpSJuRQSVEyNDAAMx3g6jPycxDUm9hqGdEgnJDTOPxqSZFMWGXAxkIb6dl5uRAQg1ZHj2YgEKQIDZ2BQA=);strokeColor=#9673a6;spacingTop=-1;spacingBottom=-1;spacingLeft=-1;spacingRight=-1;points=[[0,0.5,0],[1,0.5,0],[0.5,1,0],[0.5,0,0]];labelBackgroundColor=none;rounded=1;html=1;whiteSpace=wrap;fontFamily=Calibri;" vertex="1" parent="1">
            <mxGeometry x="366.90999999999997" y="-754.5" width="101" height="50" as="geometry" />
          </mxCell>
        </UserObject>
        <mxCell id="S82p3zj0UuUOeoXFryLE-103" value="&lt;div style=&quot;font-size: 1px&quot;&gt;&lt;font style=&quot;font-size: 11.29px; direction: ltr; letter-spacing: 0px; line-height: 120%; opacity: 1;&quot;&gt;buzzer on for 1s&lt;br&gt;&lt;/font&gt;&lt;/div&gt;" style="text;vsdxID=281;fillColor=none;gradientColor=none;strokeColor=none;spacingTop=-1;spacingBottom=-1;spacingLeft=-1;spacingRight=-1;points=[[0,0.5,0],[1,0.5,0],[0.5,1,0],[0.5,0,0]];labelBackgroundColor=none;rounded=1;html=1;whiteSpace=wrap;verticalAlign=middle;align=center;overflow=width;;html=1;fontColor=#000000;fontFamily=Calibri;" vertex="1" parent="S82p3zj0UuUOeoXFryLE-102">
          <mxGeometry x="16.93" y="-0.13157894736842107" width="67.73" height="50.131578947368425" as="geometry" />
        </mxCell>
        <UserObject label="&lt;div style=&quot;font-size: 1px&quot;&gt;&lt;font style=&quot;font-size: 11.29px; direction: ltr; letter-spacing: 0px; line-height: 120%; opacity: 1;&quot;&gt;END&lt;br&gt;&lt;/font&gt;&lt;/div&gt;" Function="EN_DIO_Error_T DIO_init(uint8_t pinNumber, EN_DIO_PORT_T portNumber, EN_DIO_DIRECTION_T direction);" tags="Flowchart" id="S82p3zj0UuUOeoXFryLE-104">
          <mxCell style="verticalAlign=middle;align=center;overflow=width;vsdxID=30;fillColor=#dae8fc;shape=stencil(tVLREoIgEPwaHnEQxsl3s/9gEpSJwDko7e+DsEkze2l627vdu5uFRaxyHe8FosR5sCcxqMZ3iO0Rpcp0ApQPCLEasUpaEC3Yi2lS3fOojOhsr3HDmObyMtsVcYqS29Qh5FEfklwrM5OXeUa/yjkcAwfr7TDpiyTfXvjkMR+Vw2A998qaBac5tAKHU1hq3i4oNwjRr9ofvayt/+Rk+yX/4iWA159KpXWKxJx/z0Bopfyw+g4=);strokeColor=#6c8ebf;spacingTop=-1;spacingBottom=-1;spacingLeft=-1;spacingRight=-1;points=[[0.5,1,0],[0.5,0,0],[0,0.5,0],[1,0.5,0]];labelBackgroundColor=none;rounded=1;html=1;whiteSpace=wrap;fontFamily=Calibri;" vertex="1" parent="1">
            <mxGeometry x="366.90999999999997" y="-517" width="101" height="38" as="geometry" />
          </mxCell>
        </UserObject>
        <mxCell id="S82p3zj0UuUOeoXFryLE-105" style="edgeStyle=none;curved=1;rounded=0;orthogonalLoop=1;jettySize=auto;html=1;entryX=0.5;entryY=0;entryDx=0;entryDy=0;entryPerimeter=0;fontSize=12;startSize=8;endSize=8;" edge="1" parent="1" source="S82p3zj0UuUOeoXFryLE-103" target="S82p3zj0UuUOeoXFryLE-104">
          <mxGeometry relative="1" as="geometry" />
        </mxCell>
        <mxCell id="S82p3zj0UuUOeoXFryLE-106" value="YES" style="text;html=1;strokeColor=none;fillColor=none;align=center;verticalAlign=middle;whiteSpace=wrap;rounded=1;fontSize=11;fontFamily=Calibri;fontColor=#000000;" vertex="1" parent="1">
          <mxGeometry x="-697" y="-833" width="33.49843260188088" height="18" as="geometry" />
        </mxCell>
        <UserObject label="" Function="EN_DIO_Error_T DIO_write(uint8_t pinNumber, EN_DIO_PORT_T portNumber, uint8_t value); " tags="Flowchart" id="S82p3zj0UuUOeoXFryLE-107">
          <mxCell style="vsdxID=281;fillColor=#e1d5e7;shape=stencil(UzV2Ls5ILEhVNTIoLinKz04tz0wpyVA1dlE1MsrMy0gtyiwBslSNXVWNndPyi1LTi/JL81Ig/IJEkEoQKze/DGRCBUSfrqGFnrkpSJuRQSVEyNDAAMx3g6jPycxDUm9hqGdEgnJDTOPxqSZFMWGXAxkIb6dl5uRAQg1ZHj2YgEKQIDZ2BQA=);strokeColor=#9673a6;spacingTop=-1;spacingBottom=-1;spacingLeft=-1;spacingRight=-1;points=[[0,0.5,0],[1,0.5,0],[0.5,1,0],[0.5,0,0]];labelBackgroundColor=none;rounded=1;html=1;whiteSpace=wrap;fontFamily=Calibri;" vertex="1" parent="1">
            <mxGeometry x="-1076" y="-40" width="131.21" height="58" as="geometry" />
          </mxCell>
        </UserObject>
        <mxCell id="S82p3zj0UuUOeoXFryLE-108" value="&lt;div style=&quot;font-size: 1px&quot;&gt;&lt;font style=&quot;font-size: 11.29px; direction: ltr; letter-spacing: 0px; line-height: 120%; opacity: 1;&quot;&gt;show buzzer icon&lt;br&gt;turn buzzer on&lt;/font&gt;&lt;/div&gt;" style="text;vsdxID=281;fillColor=none;gradientColor=none;strokeColor=none;spacingTop=-1;spacingBottom=-1;spacingLeft=-1;spacingRight=-1;points=[[0,0.5,0],[1,0.5,0],[0.5,1,0],[0.5,0,0]];labelBackgroundColor=none;rounded=1;html=1;whiteSpace=wrap;verticalAlign=middle;align=center;overflow=width;;html=1;fontColor=#000000;fontFamily=Calibri;" vertex="1" parent="S82p3zj0UuUOeoXFryLE-107">
          <mxGeometry x="21.99391386138614" y="-0.15263157894736842" width="87.98864653465347" height="58.15263157894737" as="geometry" />
        </mxCell>
        <mxCell id="S82p3zj0UuUOeoXFryLE-109" style="edgeStyle=none;curved=1;rounded=0;orthogonalLoop=1;jettySize=auto;html=1;entryX=1;entryY=0.5;entryDx=0;entryDy=0;entryPerimeter=0;fontSize=12;startSize=8;endSize=8;" edge="1" parent="1" source="S82p3zj0UuUOeoXFryLE-64" target="S82p3zj0UuUOeoXFryLE-107">
          <mxGeometry relative="1" as="geometry" />
        </mxCell>
        <mxCell id="S82p3zj0UuUOeoXFryLE-110" style="edgeStyle=orthogonalEdgeStyle;rounded=0;orthogonalLoop=1;jettySize=auto;html=1;entryX=0;entryY=0.5;entryDx=0;entryDy=0;fontSize=12;startSize=8;endSize=8;" edge="1" parent="1" source="S82p3zj0UuUOeoXFryLE-108" target="S82p3zj0UuUOeoXFryLE-72">
          <mxGeometry relative="1" as="geometry">
            <Array as="points">
              <mxPoint x="-1014" y="210" />
            </Array>
          </mxGeometry>
        </mxCell>
        <mxCell id="S82p3zj0UuUOeoXFryLE-111" value="APP_resetToDefault" style="text;whiteSpace=wrap;html=1;fontSize=16;" vertex="1" parent="1">
          <mxGeometry x="427.6999999999998" y="-294" width="172" height="41" as="geometry" />
        </mxCell>
        <mxCell id="S82p3zj0UuUOeoXFryLE-112" style="edgeStyle=none;curved=1;rounded=0;orthogonalLoop=1;jettySize=auto;html=1;exitX=1;exitY=1;exitDx=0;exitDy=0;fontSize=12;startSize=8;endSize=8;" edge="1" parent="1" source="S82p3zj0UuUOeoXFryLE-111" target="S82p3zj0UuUOeoXFryLE-111">
          <mxGeometry relative="1" as="geometry" />
        </mxCell>
        <UserObject label="&lt;div style=&quot;font-size: 1px&quot;&gt;&lt;font style=&quot;font-size: 11.29px; direction: ltr; letter-spacing: 0px; line-height: 120%; opacity: 1;&quot;&gt;Return&lt;br&gt;&lt;/font&gt;&lt;/div&gt;" Function="EN_DIO_Error_T DIO_init(uint8_t pinNumber, EN_DIO_PORT_T portNumber, EN_DIO_DIRECTION_T direction);" tags="Flowchart" id="S82p3zj0UuUOeoXFryLE-113">
          <mxCell style="verticalAlign=middle;align=center;overflow=width;vsdxID=52;fillColor=#d5e8d4;shape=stencil(tVLREoIgEPwaHnEQxsl3s/9gEpSJwDko7e+DsEkze2l627vdu5uFRaxyHe8FosR5sCcxqMZ3iO0Rpcp0ApQPCLEasUpaEC3Yi2lS3fOojOhsr3HDmObyMtsVcYqS29Qh5FEfklwrM5OXeUa/yjkcAwfr7TDpiyTfXvjkMR+Vw2A998qaBac5tAKHU1hq3i4oNwjRr9ofvayt/+Rk+yX/4iWA159KpXWKxJx/z0Bopfyw+g4=);strokeColor=#82b366;spacingTop=-1;spacingBottom=-1;spacingLeft=-1;spacingRight=-1;points=[[0.5,1,0],[0.5,0,0],[0,0.5,0],[1,0.5,0]];labelBackgroundColor=none;rounded=1;html=1;whiteSpace=wrap;fontFamily=Calibri;" vertex="1" parent="1">
            <mxGeometry x="458.89999980926495" y="276" width="101" height="38" as="geometry" />
          </mxCell>
        </UserObject>
        <UserObject label="" Function="EN_DIO_Error_T DIO_init(uint8_t pinNumber, EN_DIO_PORT_T portNumber, EN_DIO_DIRECTION_T direction);" tags="Flowchart" id="S82p3zj0UuUOeoXFryLE-114">
          <mxCell style="vsdxID=280;fillColor=#e1d5e7;shape=stencil(UzV2Ls5ILEhVNTIoLinKz04tz0wpyVA1dlE1MsrMy0gtyiwBslSNXVWNndPyi1LTi/JL81Ig/IJEkEoQKze/DGRCBUSfrqGJnoEZSJuRQSVEyNDAAMx3g6jPycxDUm9hqmdpQrxyQ0zj8akmRTFhlwMZCG+nZebkQEINWR49mIBCkCA2dgUA);strokeColor=#9673a6;spacingTop=-1;spacingBottom=-1;spacingLeft=-1;spacingRight=-1;points=[[0,0.5,0],[1,0.5,0],[0.5,1,0],[0.5,0,0]];labelBackgroundColor=none;rounded=1;html=1;whiteSpace=wrap;fontFamily=Calibri;" vertex="1" parent="1">
            <mxGeometry x="434.89999980926495" y="12" width="149" height="46" as="geometry" />
          </mxCell>
        </UserObject>
        <mxCell id="S82p3zj0UuUOeoXFryLE-115" value="&lt;div style=&quot;font-size: 1px&quot;&gt;&lt;font style=&quot;font-size: 11.29px; direction: ltr; letter-spacing: 0px; line-height: 120%; opacity: 1;&quot;&gt;Display new &lt;i&gt;DesiredTemperature &lt;/i&gt;on &lt;i&gt;LCD&lt;/i&gt;&lt;/font&gt;&lt;/div&gt;" style="text;vsdxID=280;fillColor=none;gradientColor=none;strokeColor=none;spacingTop=-1;spacingBottom=-1;spacingLeft=-1;spacingRight=-1;points=[[0,0.5,0],[1,0.5,0],[0.5,1,0],[0.5,0,0]];labelBackgroundColor=none;rounded=1;html=1;whiteSpace=wrap;verticalAlign=middle;align=center;overflow=width;;html=1;fontColor=#000000;fontFamily=Calibri;" vertex="1" parent="S82p3zj0UuUOeoXFryLE-114">
          <mxGeometry x="24.975940594059406" y="-0.12105263157894736" width="99.91851485148516" height="46.12105263157894" as="geometry" />
        </mxCell>
        <mxCell id="S82p3zj0UuUOeoXFryLE-116" style="edgeStyle=none;curved=1;rounded=0;orthogonalLoop=1;jettySize=auto;html=1;fontSize=12;startSize=8;endSize=8;" edge="1" parent="1" source="S82p3zj0UuUOeoXFryLE-117" target="S82p3zj0UuUOeoXFryLE-119">
          <mxGeometry relative="1" as="geometry" />
        </mxCell>
        <UserObject label="&lt;div style=&quot;font-size: 1px&quot;&gt;&lt;font style=&quot;font-size: 11.29px; direction: ltr; letter-spacing: 0px; line-height: 120%; opacity: 1;&quot;&gt;Start&lt;br&gt;&lt;/font&gt;&lt;/div&gt;" Function="EN_DIO_Error_T DIO_init(uint8_t pinNumber, EN_DIO_PORT_T portNumber, EN_DIO_DIRECTION_T direction);" tags="Flowchart" id="S82p3zj0UuUOeoXFryLE-117">
          <mxCell style="verticalAlign=middle;align=center;overflow=width;vsdxID=30;fillColor=#dae8fc;shape=stencil(tVLREoIgEPwaHnEQxsl3s/9gEpSJwDko7e+DsEkze2l627vdu5uFRaxyHe8FosR5sCcxqMZ3iO0Rpcp0ApQPCLEasUpaEC3Yi2lS3fOojOhsr3HDmObyMtsVcYqS29Qh5FEfklwrM5OXeUa/yjkcAwfr7TDpiyTfXvjkMR+Vw2A998qaBac5tAKHU1hq3i4oNwjRr9ofvayt/+Rk+yX/4iWA159KpXWKxJx/z0Bopfyw+g4=);strokeColor=#6c8ebf;spacingTop=-1;spacingBottom=-1;spacingLeft=-1;spacingRight=-1;points=[[0.5,1,0],[0.5,0,0],[0,0.5,0],[1,0.5,0]];labelBackgroundColor=none;rounded=1;html=1;whiteSpace=wrap;fontFamily=Calibri;" vertex="1" parent="1">
            <mxGeometry x="458.89999980926495" y="-234" width="101" height="38" as="geometry" />
          </mxCell>
        </UserObject>
        <mxCell id="S82p3zj0UuUOeoXFryLE-118" style="edgeStyle=none;curved=1;rounded=0;orthogonalLoop=1;jettySize=auto;html=1;fontSize=12;startSize=8;endSize=8;" edge="1" parent="1" source="S82p3zj0UuUOeoXFryLE-119" target="S82p3zj0UuUOeoXFryLE-121">
          <mxGeometry relative="1" as="geometry" />
        </mxCell>
        <UserObject label="&lt;div style=&quot;font-size: 1px&quot;&gt;&lt;font style=&quot;font-size: 11.29px; direction: ltr; letter-spacing: 0px; line-height: 120%; opacity: 1;&quot;&gt;Update&lt;/font&gt;&lt;/div&gt;&lt;div style=&quot;font-size: 1px&quot;&gt;&lt;font style=&quot;font-size: 11.29px; direction: ltr; letter-spacing: 0px; line-height: 120%; opacity: 1;&quot;&gt;&lt;i&gt;DesiredTemperature&lt;/i&gt; = 20&lt;br&gt;&lt;/font&gt;&lt;/div&gt;" Function="EN_DIO_Error_T DIO_toggle(uint8_t pinNumber, EN_DIO_PORT_T portNumber);  " tags="Flowchart" id="S82p3zj0UuUOeoXFryLE-119">
          <mxCell style="verticalAlign=middle;align=center;overflow=width;vsdxID=274;fillColor=#d5e8d4;shape=stencil(nZBLDoAgDERP0z3SIyjew0SURgSD+Lu9kMZoXLhwN9O+tukAlrNpJg1SzDH4QW/URgNYgZTkjA4UkwJUgGXng+6DX1zLfmoymdXo17xh5zmRJ6Q42BWCfc2oJfdAr+Yv+AP9Cb7OJ3H/2JG1HNGz/84klThPVCc=);strokeColor=#82b366;spacingTop=-1;spacingBottom=-1;spacingLeft=-1;spacingRight=-1;points=[[0,0.5,0],[1,0.5,0],[0.5,1,0],[0.5,0,0]];labelBackgroundColor=none;rounded=1;html=1;whiteSpace=wrap;fontFamily=Calibri;" vertex="1" parent="1">
            <mxGeometry x="442.39999980926495" y="-154" width="134" height="43" as="geometry" />
          </mxCell>
        </UserObject>
        <mxCell id="S82p3zj0UuUOeoXFryLE-120" style="edgeStyle=none;curved=1;rounded=0;orthogonalLoop=1;jettySize=auto;html=1;fontSize=12;startSize=8;endSize=8;" edge="1" parent="1" source="S82p3zj0UuUOeoXFryLE-121" target="S82p3zj0UuUOeoXFryLE-115">
          <mxGeometry relative="1" as="geometry" />
        </mxCell>
        <UserObject label="&lt;div style=&quot;font-size: 1px&quot;&gt;&lt;font style=&quot;font-size: 11.29px; direction: ltr; letter-spacing: 0px; line-height: 120%; opacity: 1;&quot;&gt;Clear &lt;i&gt;LCD&lt;/i&gt;&lt;br&gt;&lt;/font&gt;&lt;/div&gt;" Function="EN_DIO_Error_T DIO_toggle(uint8_t pinNumber, EN_DIO_PORT_T portNumber);  " tags="Flowchart" id="S82p3zj0UuUOeoXFryLE-121">
          <mxCell style="verticalAlign=middle;align=center;overflow=width;vsdxID=274;fillColor=#d5e8d4;shape=stencil(nZBLDoAgDERP0z3SIyjew0SURgSD+Lu9kMZoXLhwN9O+tukAlrNpJg1SzDH4QW/URgNYgZTkjA4UkwJUgGXng+6DX1zLfmoymdXo17xh5zmRJ6Q42BWCfc2oJfdAr+Yv+AP9Cb7OJ3H/2JG1HNGz/84klThPVCc=);strokeColor=#82b366;spacingTop=-1;spacingBottom=-1;spacingLeft=-1;spacingRight=-1;points=[[0,0.5,0],[1,0.5,0],[0.5,1,0],[0.5,0,0]];labelBackgroundColor=none;rounded=1;html=1;whiteSpace=wrap;fontFamily=Calibri;" vertex="1" parent="1">
            <mxGeometry x="442.39999980926495" y="-70" width="134" height="33" as="geometry" />
          </mxCell>
        </UserObject>
        <mxCell id="S82p3zj0UuUOeoXFryLE-122" style="edgeStyle=none;curved=1;rounded=0;orthogonalLoop=1;jettySize=auto;html=1;fontSize=12;startSize=8;endSize=8;" edge="1" parent="1" source="S82p3zj0UuUOeoXFryLE-123" target="S82p3zj0UuUOeoXFryLE-125">
          <mxGeometry relative="1" as="geometry" />
        </mxCell>
        <UserObject label="&lt;div style=&quot;font-size: 1px&quot;&gt;&lt;font style=&quot;font-size: 11.29px; direction: ltr; letter-spacing: 0px; line-height: 120%; opacity: 1;&quot;&gt;Delay 1 sec.&lt;/font&gt;&lt;/div&gt;" Function="EN_DIO_Error_T DIO_toggle(uint8_t pinNumber, EN_DIO_PORT_T portNumber);  " tags="Flowchart" id="S82p3zj0UuUOeoXFryLE-123">
          <mxCell style="verticalAlign=middle;align=center;overflow=width;vsdxID=274;fillColor=#d5e8d4;shape=stencil(nZBLDoAgDERP0z3SIyjew0SURgSD+Lu9kMZoXLhwN9O+tukAlrNpJg1SzDH4QW/URgNYgZTkjA4UkwJUgGXng+6DX1zLfmoymdXo17xh5zmRJ6Q42BWCfc2oJfdAr+Yv+AP9Cb7OJ3H/2JG1HNGz/84klThPVCc=);strokeColor=#82b366;spacingTop=-1;spacingBottom=-1;spacingLeft=-1;spacingRight=-1;points=[[0,0.5,0],[1,0.5,0],[0.5,1,0],[0.5,0,0]];labelBackgroundColor=none;rounded=1;html=1;whiteSpace=wrap;fontFamily=Calibri;" vertex="1" parent="1">
            <mxGeometry x="442.39999980926495" y="107" width="134" height="33" as="geometry" />
          </mxCell>
        </UserObject>
        <mxCell id="S82p3zj0UuUOeoXFryLE-124" style="edgeStyle=none;curved=1;rounded=0;orthogonalLoop=1;jettySize=auto;html=1;fontSize=12;startSize=8;endSize=8;" edge="1" parent="1" source="S82p3zj0UuUOeoXFryLE-125" target="S82p3zj0UuUOeoXFryLE-113">
          <mxGeometry relative="1" as="geometry" />
        </mxCell>
        <UserObject label="&lt;div style=&quot;font-size: 1px&quot;&gt;&lt;font style=&quot;font-size: 11.29px; direction: ltr; letter-spacing: 0px; line-height: 120%; opacity: 1;&quot;&gt;&lt;i&gt;CurrentAppState &lt;/i&gt;= STATE_RUNNING&lt;/font&gt;&lt;/div&gt;" Function="EN_DIO_Error_T DIO_toggle(uint8_t pinNumber, EN_DIO_PORT_T portNumber);  " tags="Flowchart" id="S82p3zj0UuUOeoXFryLE-125">
          <mxCell style="verticalAlign=middle;align=center;overflow=width;vsdxID=274;fillColor=#d5e8d4;shape=stencil(nZBLDoAgDERP0z3SIyjew0SURgSD+Lu9kMZoXLhwN9O+tukAlrNpJg1SzDH4QW/URgNYgZTkjA4UkwJUgGXng+6DX1zLfmoymdXo17xh5zmRJ6Q42BWCfc2oJfdAr+Yv+AP9Cb7OJ3H/2JG1HNGz/84klThPVCc=);strokeColor=#82b366;spacingTop=-1;spacingBottom=-1;spacingLeft=-1;spacingRight=-1;points=[[0,0.5,0],[1,0.5,0],[0.5,1,0],[0.5,0,0]];labelBackgroundColor=none;rounded=1;html=1;whiteSpace=wrap;fontFamily=Calibri;" vertex="1" parent="1">
            <mxGeometry x="442.39999980926495" y="189" width="134" height="38" as="geometry" />
          </mxCell>
        </UserObject>
        <mxCell id="S82p3zj0UuUOeoXFryLE-126" style="edgeStyle=none;curved=1;rounded=0;orthogonalLoop=1;jettySize=auto;html=1;fontSize=12;startSize=8;endSize=8;" edge="1" parent="1" source="S82p3zj0UuUOeoXFryLE-115" target="S82p3zj0UuUOeoXFryLE-123">
          <mxGeometry relative="1" as="geometry" />
        </mxCell>
        <mxCell id="S82p3zj0UuUOeoXFryLE-127" value="APP_switchState" style="text;html=1;align=center;verticalAlign=middle;resizable=0;points=[];autosize=1;strokeColor=none;fillColor=none;fontSize=16;" vertex="1" parent="1">
          <mxGeometry x="-100.30000000000018" y="-294" width="141" height="31" as="geometry" />
        </mxCell>
        <mxCell id="S82p3zj0UuUOeoXFryLE-128" style="edgeStyle=none;curved=1;rounded=0;orthogonalLoop=1;jettySize=auto;html=1;fontSize=12;startSize=8;endSize=8;" edge="1" parent="1" source="S82p3zj0UuUOeoXFryLE-129" target="S82p3zj0UuUOeoXFryLE-132">
          <mxGeometry relative="1" as="geometry" />
        </mxCell>
        <UserObject label="&lt;div style=&quot;font-size: 1px&quot;&gt;&lt;font style=&quot;font-size: 11.29px; direction: ltr; letter-spacing: 0px; line-height: 120%; opacity: 1;&quot;&gt;Start&lt;br&gt;&lt;/font&gt;&lt;/div&gt;" Function="EN_DIO_Error_T DIO_init(uint8_t pinNumber, EN_DIO_PORT_T portNumber, EN_DIO_DIRECTION_T direction);" tags="Flowchart" id="S82p3zj0UuUOeoXFryLE-129">
          <mxCell style="verticalAlign=middle;align=center;overflow=width;vsdxID=30;fillColor=#dae8fc;shape=stencil(tVLREoIgEPwaHnEQxsl3s/9gEpSJwDko7e+DsEkze2l627vdu5uFRaxyHe8FosR5sCcxqMZ3iO0Rpcp0ApQPCLEasUpaEC3Yi2lS3fOojOhsr3HDmObyMtsVcYqS29Qh5FEfklwrM5OXeUa/yjkcAwfr7TDpiyTfXvjkMR+Vw2A998qaBac5tAKHU1hq3i4oNwjRr9ofvayt/+Rk+yX/4iWA159KpXWKxJx/z0Bopfyw+g4=);strokeColor=#6c8ebf;spacingTop=-1;spacingBottom=-1;spacingLeft=-1;spacingRight=-1;points=[[0.5,1,0],[0.5,0,0],[0,0.5,0],[1,0.5,0]];labelBackgroundColor=none;rounded=1;html=1;whiteSpace=wrap;fontFamily=Calibri;" vertex="1" parent="1">
            <mxGeometry x="-80.30000019073486" y="-234" width="101" height="38" as="geometry" />
          </mxCell>
        </UserObject>
        <mxCell id="S82p3zj0UuUOeoXFryLE-130" style="edgeStyle=orthogonalEdgeStyle;rounded=1;orthogonalLoop=1;jettySize=auto;html=1;entryX=0.5;entryY=0;entryDx=0;entryDy=0;entryPerimeter=0;fontSize=12;startSize=8;endSize=8;" edge="1" parent="1" source="S82p3zj0UuUOeoXFryLE-132" target="S82p3zj0UuUOeoXFryLE-134">
          <mxGeometry relative="1" as="geometry" />
        </mxCell>
        <mxCell id="S82p3zj0UuUOeoXFryLE-131" style="edgeStyle=orthogonalEdgeStyle;rounded=1;orthogonalLoop=1;jettySize=auto;html=1;entryX=0.5;entryY=0;entryDx=0;entryDy=0;entryPerimeter=0;fontSize=12;startSize=8;endSize=8;" edge="1" parent="1" source="S82p3zj0UuUOeoXFryLE-132" target="S82p3zj0UuUOeoXFryLE-137">
          <mxGeometry relative="1" as="geometry" />
        </mxCell>
        <UserObject label="&lt;div style=&quot;font-size: 1px&quot;&gt;&lt;font style=&quot;font-size: 11.29px; direction: ltr; letter-spacing: 0px; line-height: 120%; opacity: 1;&quot;&gt;Switch &lt;i&gt;State&lt;/i&gt;&lt;/font&gt;&lt;/div&gt;" Function="EN_DIO_Error_T DIO_toggle(uint8_t pinNumber, EN_DIO_PORT_T portNumber);  " tags="Flowchart" id="S82p3zj0UuUOeoXFryLE-132">
          <mxCell style="verticalAlign=middle;align=center;overflow=width;vsdxID=274;fillColor=#d5e8d4;shape=stencil(nZBLDoAgDERP0z3SIyjew0SURgSD+Lu9kMZoXLhwN9O+tukAlrNpJg1SzDH4QW/URgNYgZTkjA4UkwJUgGXng+6DX1zLfmoymdXo17xh5zmRJ6Q42BWCfc2oJfdAr+Yv+AP9Cb7OJ3H/2JG1HNGz/84klThPVCc=);strokeColor=#82b366;spacingTop=-1;spacingBottom=-1;spacingLeft=-1;spacingRight=-1;points=[[0,0.5,0],[1,0.5,0],[0.5,1,0],[0.5,0,0]];labelBackgroundColor=none;rounded=1;html=1;whiteSpace=wrap;fontFamily=Calibri;" vertex="1" parent="1">
            <mxGeometry x="-96.80000000000018" y="-149" width="134" height="33" as="geometry" />
          </mxCell>
        </UserObject>
        <mxCell id="S82p3zj0UuUOeoXFryLE-133" style="edgeStyle=none;curved=1;rounded=0;orthogonalLoop=1;jettySize=auto;html=1;entryX=0.5;entryY=0;entryDx=0;entryDy=0;entryPerimeter=0;fontSize=12;startSize=8;endSize=8;" edge="1" parent="1" source="S82p3zj0UuUOeoXFryLE-134" target="S82p3zj0UuUOeoXFryLE-140">
          <mxGeometry relative="1" as="geometry" />
        </mxCell>
        <UserObject label="" Function="EN_DIO_Error_T DIO_init(uint8_t pinNumber, EN_DIO_PORT_T portNumber, EN_DIO_DIRECTION_T direction);" tags="Flowchart" id="S82p3zj0UuUOeoXFryLE-134">
          <mxCell style="vsdxID=219;fillColor=#fff2cc;shape=stencil(UzV2Ls5ILEhVNTIoLinKz04tz0wpyVA1dlE1MsrMy0gtyiwBslSNXVWNndPyi1LTi/JL81Ig/IJEkEoQKze/DGRCBUSfAUiHkUElhGcK4bpBVOZk5iGpNEVVikeloQHZpsK0YlWLz1QgA+HFtMycHEgIIcujBwlQCBKcxq4A);strokeColor=#d6b656;spacingTop=-1;spacingBottom=-1;spacingLeft=-1;spacingRight=-1;points=[[0,0.5,0],[1,0.5,0],[0.5,0,0],[0.5,1,0]];labelBackgroundColor=none;rounded=1;html=1;whiteSpace=wrap;fontFamily=Calibri;" vertex="1" parent="1">
            <mxGeometry x="-227.30000000000018" y="-103" width="101" height="76" as="geometry" />
          </mxCell>
        </UserObject>
        <mxCell id="S82p3zj0UuUOeoXFryLE-135" value="&lt;div style=&quot;font-size: 1px&quot;&gt;&lt;font style=&quot;font-size: 11.29px; direction: ltr; letter-spacing: 0px; line-height: 120%; opacity: 1;&quot;&gt;STATE_RUNNING&lt;br&gt;&lt;/font&gt;&lt;/div&gt;" style="text;vsdxID=219;fillColor=none;gradientColor=none;strokeColor=none;spacingTop=-1;spacingBottom=-1;spacingLeft=-1;spacingRight=-1;points=[[0,0.5,0],[1,0.5,0],[0.5,0,0],[0.5,1,0]];labelBackgroundColor=none;rounded=1;html=1;whiteSpace=wrap;verticalAlign=middle;align=center;overflow=width;;html=1;fontColor=#000000;fontFamily=Calibri;" vertex="1" parent="S82p3zj0UuUOeoXFryLE-134">
          <mxGeometry x="8.47" y="9.33" width="84.67" height="57.15" as="geometry" />
        </mxCell>
        <mxCell id="S82p3zj0UuUOeoXFryLE-136" style="edgeStyle=none;curved=1;rounded=0;orthogonalLoop=1;jettySize=auto;html=1;entryX=0.5;entryY=0;entryDx=0;entryDy=0;entryPerimeter=0;fontSize=12;startSize=8;endSize=8;" edge="1" parent="1" source="S82p3zj0UuUOeoXFryLE-137" target="S82p3zj0UuUOeoXFryLE-151">
          <mxGeometry relative="1" as="geometry" />
        </mxCell>
        <UserObject label="" Function="EN_DIO_Error_T DIO_init(uint8_t pinNumber, EN_DIO_PORT_T portNumber, EN_DIO_DIRECTION_T direction);" tags="Flowchart" id="S82p3zj0UuUOeoXFryLE-137">
          <mxCell style="vsdxID=219;fillColor=#fff2cc;shape=stencil(UzV2Ls5ILEhVNTIoLinKz04tz0wpyVA1dlE1MsrMy0gtyiwBslSNXVWNndPyi1LTi/JL81Ig/IJEkEoQKze/DGRCBUSfAUiHkUElhGcK4bpBVOZk5iGpNEVVikeloQHZpsK0YlWLz1QgA+HFtMycHEgIIcujBwlQCBKcxq4A);strokeColor=#d6b656;spacingTop=-1;spacingBottom=-1;spacingLeft=-1;spacingRight=-1;points=[[0,0.5,0],[1,0.5,0],[0.5,0,0],[0.5,1,0]];labelBackgroundColor=none;rounded=1;html=1;whiteSpace=wrap;fontFamily=Calibri;" vertex="1" parent="1">
            <mxGeometry x="54.69999999999982" y="-103" width="101" height="76" as="geometry" />
          </mxCell>
        </UserObject>
        <mxCell id="S82p3zj0UuUOeoXFryLE-138" value="&lt;div style=&quot;font-size: 1px&quot;&gt;&lt;font style=&quot;font-size: 11.29px; direction: ltr; letter-spacing: 0px; line-height: 120%; opacity: 1;&quot;&gt;STATE_ADJUST&lt;br&gt;&lt;/font&gt;&lt;/div&gt;" style="text;vsdxID=219;fillColor=none;gradientColor=none;strokeColor=none;spacingTop=-1;spacingBottom=-1;spacingLeft=-1;spacingRight=-1;points=[[0,0.5,0],[1,0.5,0],[0.5,0,0],[0.5,1,0]];labelBackgroundColor=none;rounded=1;html=1;whiteSpace=wrap;verticalAlign=middle;align=center;overflow=width;;html=1;fontColor=#000000;fontFamily=Calibri;" vertex="1" parent="S82p3zj0UuUOeoXFryLE-137">
          <mxGeometry x="8.47" y="9.33" width="84.67" height="57.15" as="geometry" />
        </mxCell>
        <mxCell id="S82p3zj0UuUOeoXFryLE-139" style="edgeStyle=none;curved=1;rounded=0;orthogonalLoop=1;jettySize=auto;html=1;fontSize=12;startSize=8;endSize=8;" edge="1" parent="1" source="S82p3zj0UuUOeoXFryLE-140" target="S82p3zj0UuUOeoXFryLE-142">
          <mxGeometry relative="1" as="geometry" />
        </mxCell>
        <UserObject label="&lt;div style=&quot;&quot;&gt;&lt;span style=&quot;font-size: 11.29px;&quot;&gt;Disable &lt;i&gt;KPD&lt;/i&gt;&lt;/span&gt;&lt;/div&gt;" Function="EN_DIO_Error_T DIO_toggle(uint8_t pinNumber, EN_DIO_PORT_T portNumber);  " tags="Flowchart" id="S82p3zj0UuUOeoXFryLE-140">
          <mxCell style="verticalAlign=middle;align=center;overflow=width;vsdxID=274;fillColor=#d5e8d4;shape=stencil(nZBLDoAgDERP0z3SIyjew0SURgSD+Lu9kMZoXLhwN9O+tukAlrNpJg1SzDH4QW/URgNYgZTkjA4UkwJUgGXng+6DX1zLfmoymdXo17xh5zmRJ6Q42BWCfc2oJfdAr+Yv+AP9Cb7OJ3H/2JG1HNGz/84klThPVCc=);strokeColor=#82b366;spacingTop=-1;spacingBottom=-1;spacingLeft=-1;spacingRight=-1;points=[[0,0.5,0],[1,0.5,0],[0.5,1,0],[0.5,0,0]];labelBackgroundColor=none;rounded=1;html=1;whiteSpace=wrap;fontFamily=Calibri;" vertex="1" parent="1">
            <mxGeometry x="-231.80000000000018" y="3" width="110" height="33" as="geometry" />
          </mxCell>
        </UserObject>
        <mxCell id="S82p3zj0UuUOeoXFryLE-141" style="edgeStyle=none;curved=1;rounded=0;orthogonalLoop=1;jettySize=auto;html=1;fontSize=12;startSize=8;endSize=8;" edge="1" parent="1" source="S82p3zj0UuUOeoXFryLE-142" target="S82p3zj0UuUOeoXFryLE-144">
          <mxGeometry relative="1" as="geometry" />
        </mxCell>
        <UserObject label="&lt;div style=&quot;&quot;&gt;&lt;span style=&quot;font-size: 11.29px;&quot;&gt;Turn Off &lt;i&gt;BUZZER&lt;/i&gt;&lt;/span&gt;&lt;/div&gt;" Function="EN_DIO_Error_T DIO_toggle(uint8_t pinNumber, EN_DIO_PORT_T portNumber);  " tags="Flowchart" id="S82p3zj0UuUOeoXFryLE-142">
          <mxCell style="verticalAlign=middle;align=center;overflow=width;vsdxID=274;fillColor=#d5e8d4;shape=stencil(nZBLDoAgDERP0z3SIyjew0SURgSD+Lu9kMZoXLhwN9O+tukAlrNpJg1SzDH4QW/URgNYgZTkjA4UkwJUgGXng+6DX1zLfmoymdXo17xh5zmRJ6Q42BWCfc2oJfdAr+Yv+AP9Cb7OJ3H/2JG1HNGz/84klThPVCc=);strokeColor=#82b366;spacingTop=-1;spacingBottom=-1;spacingLeft=-1;spacingRight=-1;points=[[0,0.5,0],[1,0.5,0],[0.5,1,0],[0.5,0,0]];labelBackgroundColor=none;rounded=1;html=1;whiteSpace=wrap;fontFamily=Calibri;" vertex="1" parent="1">
            <mxGeometry x="-231.80000000000018" y="73" width="110" height="33" as="geometry" />
          </mxCell>
        </UserObject>
        <mxCell id="S82p3zj0UuUOeoXFryLE-143" style="edgeStyle=none;curved=1;rounded=0;orthogonalLoop=1;jettySize=auto;html=1;entryX=0.5;entryY=0;entryDx=0;entryDy=0;entryPerimeter=0;fontSize=12;startSize=8;endSize=8;" edge="1" parent="1" source="S82p3zj0UuUOeoXFryLE-144" target="S82p3zj0UuUOeoXFryLE-146">
          <mxGeometry relative="1" as="geometry" />
        </mxCell>
        <UserObject label="&lt;div style=&quot;font-size: 1px&quot;&gt;&lt;font style=&quot;font-size: 11.29px; direction: ltr; letter-spacing: 0px; line-height: 120%; opacity: 1;&quot;&gt;Clear &lt;i&gt;LCD&lt;/i&gt;&lt;br&gt;&lt;/font&gt;&lt;/div&gt;" Function="EN_DIO_Error_T DIO_toggle(uint8_t pinNumber, EN_DIO_PORT_T portNumber);  " tags="Flowchart" id="S82p3zj0UuUOeoXFryLE-144">
          <mxCell style="verticalAlign=middle;align=center;overflow=width;vsdxID=274;fillColor=#d5e8d4;shape=stencil(nZBLDoAgDERP0z3SIyjew0SURgSD+Lu9kMZoXLhwN9O+tukAlrNpJg1SzDH4QW/URgNYgZTkjA4UkwJUgGXng+6DX1zLfmoymdXo17xh5zmRJ6Q42BWCfc2oJfdAr+Yv+AP9Cb7OJ3H/2JG1HNGz/84klThPVCc=);strokeColor=#82b366;spacingTop=-1;spacingBottom=-1;spacingLeft=-1;spacingRight=-1;points=[[0,0.5,0],[1,0.5,0],[0.5,1,0],[0.5,0,0]];labelBackgroundColor=none;rounded=1;html=1;whiteSpace=wrap;fontFamily=Calibri;" vertex="1" parent="1">
            <mxGeometry x="-231.80000000000018" y="143" width="110" height="33" as="geometry" />
          </mxCell>
        </UserObject>
        <UserObject label="" Function="EN_DIO_Error_T DIO_init(uint8_t pinNumber, EN_DIO_PORT_T portNumber, EN_DIO_DIRECTION_T direction);" tags="Flowchart" id="S82p3zj0UuUOeoXFryLE-145">
          <mxCell style="vsdxID=280;fillColor=#e1d5e7;shape=stencil(UzV2Ls5ILEhVNTIoLinKz04tz0wpyVA1dlE1MsrMy0gtyiwBslSNXVWNndPyi1LTi/JL81Ig/IJEkEoQKze/DGRCBUSfrqGJnoEZSJuRQSVEyNDAAMx3g6jPycxDUm9hqmdpQrxyQ0zj8akmRTFhlwMZCG+nZebkQEINWR49mIBCkCA2dgUA);strokeColor=#9673a6;spacingTop=-1;spacingBottom=-1;spacingLeft=-1;spacingRight=-1;points=[[0,0.5,0],[1,0.5,0],[0.5,1,0],[0.5,0,0]];labelBackgroundColor=none;rounded=1;html=1;whiteSpace=wrap;fontFamily=Calibri;" vertex="1" parent="1">
            <mxGeometry x="-251" y="220" width="149" height="46" as="geometry" />
          </mxCell>
        </UserObject>
        <mxCell id="S82p3zj0UuUOeoXFryLE-146" value="&lt;div style=&quot;font-size: 1px&quot;&gt;&lt;font style=&quot;font-size: 11.29px; direction: ltr; letter-spacing: 0px; line-height: 120%; opacity: 1;&quot;&gt;Display new &lt;i&gt;CurrentTemperature &lt;/i&gt;on &lt;i&gt;LCD&lt;/i&gt;&lt;/font&gt;&lt;/div&gt;" style="text;vsdxID=280;fillColor=none;gradientColor=none;strokeColor=none;spacingTop=-1;spacingBottom=-1;spacingLeft=-1;spacingRight=-1;points=[[0,0.5,0],[1,0.5,0],[0.5,1,0],[0.5,0,0]];labelBackgroundColor=none;rounded=1;html=1;whiteSpace=wrap;verticalAlign=middle;align=center;overflow=width;;html=1;fontColor=#000000;fontFamily=Calibri;" vertex="1" parent="S82p3zj0UuUOeoXFryLE-145">
          <mxGeometry x="24.975940594059406" y="-0.12105263157894736" width="99.91851485148516" height="46.12105263157894" as="geometry" />
        </mxCell>
        <mxCell id="S82p3zj0UuUOeoXFryLE-147" style="edgeStyle=none;curved=1;rounded=0;orthogonalLoop=1;jettySize=auto;html=1;fontSize=12;startSize=8;endSize=8;" edge="1" parent="1" source="S82p3zj0UuUOeoXFryLE-148" target="S82p3zj0UuUOeoXFryLE-149">
          <mxGeometry relative="1" as="geometry" />
        </mxCell>
        <UserObject label="&lt;div style=&quot;font-size: 1px&quot;&gt;&lt;font style=&quot;font-size: 11.29px; direction: ltr; letter-spacing: 0px; line-height: 120%; opacity: 1;&quot;&gt;Update &lt;i&gt;CurrentAppState &lt;/i&gt;= State (passed)&lt;/font&gt;&lt;/div&gt;" Function="EN_DIO_Error_T DIO_toggle(uint8_t pinNumber, EN_DIO_PORT_T portNumber);  " tags="Flowchart" id="S82p3zj0UuUOeoXFryLE-148">
          <mxCell style="verticalAlign=middle;align=center;overflow=width;vsdxID=274;fillColor=#d5e8d4;shape=stencil(nZBLDoAgDERP0z3SIyjew0SURgSD+Lu9kMZoXLhwN9O+tukAlrNpJg1SzDH4QW/URgNYgZTkjA4UkwJUgGXng+6DX1zLfmoymdXo17xh5zmRJ6Q42BWCfc2oJfdAr+Yv+AP9Cb7OJ3H/2JG1HNGz/84klThPVCc=);strokeColor=#82b366;spacingTop=-1;spacingBottom=-1;spacingLeft=-1;spacingRight=-1;points=[[0,0.5,0],[1,0.5,0],[0.5,1,0],[0.5,0,0]];labelBackgroundColor=none;rounded=1;html=1;whiteSpace=wrap;fontFamily=Calibri;" vertex="1" parent="1">
            <mxGeometry x="-96.80000000000018" y="657" width="134" height="46" as="geometry" />
          </mxCell>
        </UserObject>
        <UserObject label="&lt;div style=&quot;font-size: 1px&quot;&gt;&lt;font style=&quot;font-size: 11.29px; direction: ltr; letter-spacing: 0px; line-height: 120%; opacity: 1;&quot;&gt;Return&lt;br&gt;&lt;/font&gt;&lt;/div&gt;" Function="EN_DIO_Error_T DIO_init(uint8_t pinNumber, EN_DIO_PORT_T portNumber, EN_DIO_DIRECTION_T direction);" tags="Flowchart" id="S82p3zj0UuUOeoXFryLE-149">
          <mxCell style="verticalAlign=middle;align=center;overflow=width;vsdxID=52;fillColor=#d5e8d4;shape=stencil(tVLREoIgEPwaHnEQxsl3s/9gEpSJwDko7e+DsEkze2l627vdu5uFRaxyHe8FosR5sCcxqMZ3iO0Rpcp0ApQPCLEasUpaEC3Yi2lS3fOojOhsr3HDmObyMtsVcYqS29Qh5FEfklwrM5OXeUa/yjkcAwfr7TDpiyTfXvjkMR+Vw2A998qaBac5tAKHU1hq3i4oNwjRr9ofvayt/+Rk+yX/4iWA159KpXWKxJx/z0Bopfyw+g4=);strokeColor=#82b366;spacingTop=-1;spacingBottom=-1;spacingLeft=-1;spacingRight=-1;points=[[0.5,1,0],[0.5,0,0],[0,0.5,0],[1,0.5,0]];labelBackgroundColor=none;rounded=1;html=1;whiteSpace=wrap;fontFamily=Calibri;" vertex="1" parent="1">
            <mxGeometry x="-80.30000000000018" y="743" width="101" height="38" as="geometry" />
          </mxCell>
        </UserObject>
        <mxCell id="S82p3zj0UuUOeoXFryLE-150" style="edgeStyle=none;curved=1;rounded=0;orthogonalLoop=1;jettySize=auto;html=1;fontSize=12;startSize=8;endSize=8;" edge="1" parent="1" source="S82p3zj0UuUOeoXFryLE-151" target="S82p3zj0UuUOeoXFryLE-153">
          <mxGeometry relative="1" as="geometry" />
        </mxCell>
        <UserObject label="&lt;div style=&quot;&quot;&gt;&lt;span style=&quot;font-size: 11.29px;&quot;&gt;Disable &lt;i&gt;KPD&lt;/i&gt;&lt;/span&gt;&lt;/div&gt;" Function="EN_DIO_Error_T DIO_toggle(uint8_t pinNumber, EN_DIO_PORT_T portNumber);  " tags="Flowchart" id="S82p3zj0UuUOeoXFryLE-151">
          <mxCell style="verticalAlign=middle;align=center;overflow=width;vsdxID=274;fillColor=#d5e8d4;shape=stencil(nZBLDoAgDERP0z3SIyjew0SURgSD+Lu9kMZoXLhwN9O+tukAlrNpJg1SzDH4QW/URgNYgZTkjA4UkwJUgGXng+6DX1zLfmoymdXo17xh5zmRJ6Q42BWCfc2oJfdAr+Yv+AP9Cb7OJ3H/2JG1HNGz/84klThPVCc=);strokeColor=#82b366;spacingTop=-1;spacingBottom=-1;spacingLeft=-1;spacingRight=-1;points=[[0,0.5,0],[1,0.5,0],[0.5,1,0],[0.5,0,0]];labelBackgroundColor=none;rounded=1;html=1;whiteSpace=wrap;fontFamily=Calibri;" vertex="1" parent="1">
            <mxGeometry x="50.19999999999982" y="4" width="110" height="33" as="geometry" />
          </mxCell>
        </UserObject>
        <mxCell id="S82p3zj0UuUOeoXFryLE-152" style="edgeStyle=none;curved=1;rounded=0;orthogonalLoop=1;jettySize=auto;html=1;fontSize=12;startSize=8;endSize=8;" edge="1" parent="1" source="S82p3zj0UuUOeoXFryLE-153" target="S82p3zj0UuUOeoXFryLE-155">
          <mxGeometry relative="1" as="geometry" />
        </mxCell>
        <UserObject label="&lt;div style=&quot;&quot;&gt;&lt;span style=&quot;font-size: 11.29px;&quot;&gt;Turn Off &lt;i&gt;BUZZER&lt;/i&gt;&lt;/span&gt;&lt;/div&gt;" Function="EN_DIO_Error_T DIO_toggle(uint8_t pinNumber, EN_DIO_PORT_T portNumber);  " tags="Flowchart" id="S82p3zj0UuUOeoXFryLE-153">
          <mxCell style="verticalAlign=middle;align=center;overflow=width;vsdxID=274;fillColor=#d5e8d4;shape=stencil(nZBLDoAgDERP0z3SIyjew0SURgSD+Lu9kMZoXLhwN9O+tukAlrNpJg1SzDH4QW/URgNYgZTkjA4UkwJUgGXng+6DX1zLfmoymdXo17xh5zmRJ6Q42BWCfc2oJfdAr+Yv+AP9Cb7OJ3H/2JG1HNGz/84klThPVCc=);strokeColor=#82b366;spacingTop=-1;spacingBottom=-1;spacingLeft=-1;spacingRight=-1;points=[[0,0.5,0],[1,0.5,0],[0.5,1,0],[0.5,0,0]];labelBackgroundColor=none;rounded=1;html=1;whiteSpace=wrap;fontFamily=Calibri;" vertex="1" parent="1">
            <mxGeometry x="50.19999999999982" y="74" width="110" height="33" as="geometry" />
          </mxCell>
        </UserObject>
        <mxCell id="S82p3zj0UuUOeoXFryLE-154" style="edgeStyle=none;curved=1;rounded=0;orthogonalLoop=1;jettySize=auto;html=1;fontSize=12;startSize=8;endSize=8;" edge="1" parent="1" source="S82p3zj0UuUOeoXFryLE-155" target="S82p3zj0UuUOeoXFryLE-157">
          <mxGeometry relative="1" as="geometry" />
        </mxCell>
        <UserObject label="&lt;div style=&quot;font-size: 1px&quot;&gt;&lt;font style=&quot;font-size: 11.29px; direction: ltr; letter-spacing: 0px; line-height: 120%; opacity: 1;&quot;&gt;Clear &lt;i&gt;LCD&lt;/i&gt;&lt;br&gt;&lt;/font&gt;&lt;/div&gt;" Function="EN_DIO_Error_T DIO_toggle(uint8_t pinNumber, EN_DIO_PORT_T portNumber);  " tags="Flowchart" id="S82p3zj0UuUOeoXFryLE-155">
          <mxCell style="verticalAlign=middle;align=center;overflow=width;vsdxID=274;fillColor=#d5e8d4;shape=stencil(nZBLDoAgDERP0z3SIyjew0SURgSD+Lu9kMZoXLhwN9O+tukAlrNpJg1SzDH4QW/URgNYgZTkjA4UkwJUgGXng+6DX1zLfmoymdXo17xh5zmRJ6Q42BWCfc2oJfdAr+Yv+AP9Cb7OJ3H/2JG1HNGz/84klThPVCc=);strokeColor=#82b366;spacingTop=-1;spacingBottom=-1;spacingLeft=-1;spacingRight=-1;points=[[0,0.5,0],[1,0.5,0],[0.5,1,0],[0.5,0,0]];labelBackgroundColor=none;rounded=1;html=1;whiteSpace=wrap;fontFamily=Calibri;" vertex="1" parent="1">
            <mxGeometry x="50.19999999999982" y="144" width="110" height="33" as="geometry" />
          </mxCell>
        </UserObject>
        <UserObject label="" Function="EN_DIO_Error_T DIO_init(uint8_t pinNumber, EN_DIO_PORT_T portNumber, EN_DIO_DIRECTION_T direction);" tags="Flowchart" id="S82p3zj0UuUOeoXFryLE-156">
          <mxCell style="vsdxID=280;fillColor=#e1d5e7;shape=stencil(UzV2Ls5ILEhVNTIoLinKz04tz0wpyVA1dlE1MsrMy0gtyiwBslSNXVWNndPyi1LTi/JL81Ig/IJEkEoQKze/DGRCBUSfrqGJnoEZSJuRQSVEyNDAAMx3g6jPycxDUm9hqmdpQrxyQ0zj8akmRTFhlwMZCG+nZebkQEINWR49mIBCkCA2dgUA);strokeColor=#9673a6;spacingTop=-1;spacingBottom=-1;spacingLeft=-1;spacingRight=-1;points=[[0,0.5,0],[1,0.5,0],[0.5,1,0],[0.5,0,0]];labelBackgroundColor=none;rounded=1;html=1;whiteSpace=wrap;fontFamily=Calibri;" vertex="1" parent="1">
            <mxGeometry x="30.699999999999818" y="220" width="149" height="46" as="geometry" />
          </mxCell>
        </UserObject>
        <mxCell id="S82p3zj0UuUOeoXFryLE-157" value="&lt;div style=&quot;font-size: 1px&quot;&gt;&lt;font style=&quot;font-size: 11.29px; direction: ltr; letter-spacing: 0px; line-height: 120%; opacity: 1;&quot;&gt;Display &quot;Please choose the req tmp&quot; on &lt;i&gt;LCD&lt;/i&gt;&lt;/font&gt;&lt;/div&gt;" style="text;vsdxID=280;fillColor=none;gradientColor=none;strokeColor=none;spacingTop=-1;spacingBottom=-1;spacingLeft=-1;spacingRight=-1;points=[[0,0.5,0],[1,0.5,0],[0.5,1,0],[0.5,0,0]];labelBackgroundColor=none;rounded=1;html=1;whiteSpace=wrap;verticalAlign=middle;align=center;overflow=width;;html=1;fontColor=#000000;fontFamily=Calibri;" vertex="1" parent="S82p3zj0UuUOeoXFryLE-156">
          <mxGeometry x="24.975940594059406" y="-0.12105263157894736" width="99.91851485148516" height="46.12105263157894" as="geometry" />
        </mxCell>
        <UserObject label="" Function="EN_DIO_Error_T DIO_init(uint8_t pinNumber, EN_DIO_PORT_T portNumber, EN_DIO_DIRECTION_T direction);" tags="Flowchart" id="S82p3zj0UuUOeoXFryLE-158">
          <mxCell style="vsdxID=280;fillColor=#e1d5e7;shape=stencil(UzV2Ls5ILEhVNTIoLinKz04tz0wpyVA1dlE1MsrMy0gtyiwBslSNXVWNndPyi1LTi/JL81Ig/IJEkEoQKze/DGRCBUSfrqGJnoEZSJuRQSVEyNDAAMx3g6jPycxDUm9hqmdpQrxyQ0zj8akmRTFhlwMZCG+nZebkQEINWR49mIBCkCA2dgUA);strokeColor=#9673a6;spacingTop=-1;spacingBottom=-1;spacingLeft=-1;spacingRight=-1;points=[[0,0.5,0],[1,0.5,0],[0.5,1,0],[0.5,0,0]];labelBackgroundColor=none;rounded=1;html=1;whiteSpace=wrap;fontFamily=Calibri;" vertex="1" parent="1">
            <mxGeometry x="30.699999999999818" y="363" width="149" height="46" as="geometry" />
          </mxCell>
        </UserObject>
        <mxCell id="S82p3zj0UuUOeoXFryLE-159" value="&lt;div style=&quot;font-size: 1px&quot;&gt;&lt;font style=&quot;font-size: 11.29px; direction: ltr; letter-spacing: 0px; line-height: 120%; opacity: 1;&quot;&gt;Display &quot;Controls 1(+) 2(-) 3(set)&quot; on &lt;i&gt;LCD&lt;/i&gt;&lt;/font&gt;&lt;/div&gt;" style="text;vsdxID=280;fillColor=none;gradientColor=none;strokeColor=none;spacingTop=-1;spacingBottom=-1;spacingLeft=-1;spacingRight=-1;points=[[0,0.5,0],[1,0.5,0],[0.5,1,0],[0.5,0,0]];labelBackgroundColor=none;rounded=1;html=1;whiteSpace=wrap;verticalAlign=middle;align=center;overflow=width;;html=1;fontColor=#000000;fontFamily=Calibri;" vertex="1" parent="S82p3zj0UuUOeoXFryLE-158">
          <mxGeometry x="24.975940594059406" y="-0.12105263157894736" width="99.91851485148516" height="46.12105263157894" as="geometry" />
        </mxCell>
        <mxCell id="S82p3zj0UuUOeoXFryLE-160" style="edgeStyle=none;curved=1;rounded=0;orthogonalLoop=1;jettySize=auto;html=1;fontSize=12;startSize=8;endSize=8;" edge="1" parent="1" source="S82p3zj0UuUOeoXFryLE-161" target="S82p3zj0UuUOeoXFryLE-159">
          <mxGeometry relative="1" as="geometry" />
        </mxCell>
        <UserObject label="&lt;div style=&quot;font-size: 1px&quot;&gt;&lt;font style=&quot;font-size: 11.29px; direction: ltr; letter-spacing: 0px; line-height: 120%; opacity: 1;&quot;&gt;Delay 0.5 sec.&lt;/font&gt;&lt;/div&gt;" Function="EN_DIO_Error_T DIO_toggle(uint8_t pinNumber, EN_DIO_PORT_T portNumber);  " tags="Flowchart" id="S82p3zj0UuUOeoXFryLE-161">
          <mxCell style="verticalAlign=middle;align=center;overflow=width;vsdxID=274;fillColor=#d5e8d4;shape=stencil(nZBLDoAgDERP0z3SIyjew0SURgSD+Lu9kMZoXLhwN9O+tukAlrNpJg1SzDH4QW/URgNYgZTkjA4UkwJUgGXng+6DX1zLfmoymdXo17xh5zmRJ6Q42BWCfc2oJfdAr+Yv+AP9Cb7OJ3H/2JG1HNGz/84klThPVCc=);strokeColor=#82b366;spacingTop=-1;spacingBottom=-1;spacingLeft=-1;spacingRight=-1;points=[[0,0.5,0],[1,0.5,0],[0.5,1,0],[0.5,0,0]];labelBackgroundColor=none;rounded=1;html=1;whiteSpace=wrap;fontFamily=Calibri;" vertex="1" parent="1">
            <mxGeometry x="50.19999999999982" y="298" width="110" height="33" as="geometry" />
          </mxCell>
        </UserObject>
        <mxCell id="S82p3zj0UuUOeoXFryLE-162" style="edgeStyle=none;curved=1;rounded=0;orthogonalLoop=1;jettySize=auto;html=1;fontSize=12;startSize=8;endSize=8;" edge="1" parent="1" source="S82p3zj0UuUOeoXFryLE-163" target="S82p3zj0UuUOeoXFryLE-165">
          <mxGeometry relative="1" as="geometry" />
        </mxCell>
        <UserObject label="&lt;div style=&quot;font-size: 1px&quot;&gt;&lt;font style=&quot;font-size: 11.29px; direction: ltr; letter-spacing: 0px; line-height: 120%; opacity: 1;&quot;&gt;Delay 2 sec.&lt;/font&gt;&lt;/div&gt;" Function="EN_DIO_Error_T DIO_toggle(uint8_t pinNumber, EN_DIO_PORT_T portNumber);  " tags="Flowchart" id="S82p3zj0UuUOeoXFryLE-163">
          <mxCell style="verticalAlign=middle;align=center;overflow=width;vsdxID=274;fillColor=#d5e8d4;shape=stencil(nZBLDoAgDERP0z3SIyjew0SURgSD+Lu9kMZoXLhwN9O+tukAlrNpJg1SzDH4QW/URgNYgZTkjA4UkwJUgGXng+6DX1zLfmoymdXo17xh5zmRJ6Q42BWCfc2oJfdAr+Yv+AP9Cb7OJ3H/2JG1HNGz/84klThPVCc=);strokeColor=#82b366;spacingTop=-1;spacingBottom=-1;spacingLeft=-1;spacingRight=-1;points=[[0,0.5,0],[1,0.5,0],[0.5,1,0],[0.5,0,0]];labelBackgroundColor=none;rounded=1;html=1;whiteSpace=wrap;fontFamily=Calibri;" vertex="1" parent="1">
            <mxGeometry x="50.19999999999982" y="442" width="110" height="33" as="geometry" />
          </mxCell>
        </UserObject>
        <UserObject label="" Function="EN_DIO_Error_T DIO_init(uint8_t pinNumber, EN_DIO_PORT_T portNumber, EN_DIO_DIRECTION_T direction);" tags="Flowchart" id="S82p3zj0UuUOeoXFryLE-164">
          <mxCell style="vsdxID=280;fillColor=#e1d5e7;shape=stencil(UzV2Ls5ILEhVNTIoLinKz04tz0wpyVA1dlE1MsrMy0gtyiwBslSNXVWNndPyi1LTi/JL81Ig/IJEkEoQKze/DGRCBUSfrqGJnoEZSJuRQSVEyNDAAMx3g6jPycxDUm9hqmdpQrxyQ0zj8akmRTFhlwMZCG+nZebkQEINWR49mIBCkCA2dgUA);strokeColor=#9673a6;spacingTop=-1;spacingBottom=-1;spacingLeft=-1;spacingRight=-1;points=[[0,0.5,0],[1,0.5,0],[0.5,1,0],[0.5,0,0]];labelBackgroundColor=none;rounded=1;html=1;whiteSpace=wrap;fontFamily=Calibri;" vertex="1" parent="1">
            <mxGeometry x="18.199999999999818" y="514" width="174" height="46" as="geometry" />
          </mxCell>
        </UserObject>
        <mxCell id="S82p3zj0UuUOeoXFryLE-165" value="&lt;div style=&quot;font-size: 1px&quot;&gt;&lt;font style=&quot;font-size: 11.29px; direction: ltr; letter-spacing: 0px; line-height: 120%; opacity: 1;&quot;&gt;Display &quot;Min:18&amp;nbsp;&lt;/font&gt;&lt;/div&gt;&lt;div style=&quot;font-size: 1px&quot;&gt;&lt;font style=&quot;font-size: 11.29px; direction: ltr; letter-spacing: 0px; line-height: 120%; opacity: 1;&quot;&gt;&lt;i style=&quot;border-color: var(--border-color);&quot;&gt;DesiredTemperature&amp;nbsp;&lt;/i&gt;&lt;/font&gt;&lt;/div&gt;&lt;div style=&quot;font-size: 1px&quot;&gt;&lt;font style=&quot;font-size: 11.29px; direction: ltr; letter-spacing: 0px; line-height: 120%; opacity: 1;&quot;&gt;Max:35&quot; &lt;i&gt;&amp;nbsp;&lt;/i&gt;on &lt;i&gt;LCD&lt;/i&gt;&lt;/font&gt;&lt;/div&gt;" style="text;vsdxID=280;fillColor=none;gradientColor=none;strokeColor=none;spacingTop=-1;spacingBottom=-1;spacingLeft=-1;spacingRight=-1;points=[[0,0.5,0],[1,0.5,0],[0.5,1,0],[0.5,0,0]];labelBackgroundColor=none;rounded=1;html=1;whiteSpace=wrap;verticalAlign=middle;align=center;overflow=width;;html=1;fontColor=#000000;fontFamily=Calibri;" vertex="1" parent="S82p3zj0UuUOeoXFryLE-164">
          <mxGeometry x="28.65653465346535" y="-0.12105263157894797" width="116.68336633663368" height="46.12105263157894" as="geometry" />
        </mxCell>
        <mxCell id="S82p3zj0UuUOeoXFryLE-166" style="edgeStyle=orthogonalEdgeStyle;rounded=1;orthogonalLoop=1;jettySize=auto;html=1;entryX=1;entryY=0.5;entryDx=0;entryDy=0;entryPerimeter=0;fontSize=12;startSize=8;endSize=8;exitX=0.5;exitY=1;exitDx=0;exitDy=0;exitPerimeter=0;" edge="1" parent="1" source="S82p3zj0UuUOeoXFryLE-167" target="S82p3zj0UuUOeoXFryLE-148">
          <mxGeometry relative="1" as="geometry" />
        </mxCell>
        <UserObject label="&lt;div style=&quot;font-size: 1px&quot;&gt;&lt;font style=&quot;font-size: 11.29px; direction: ltr; letter-spacing: 0px; line-height: 120%; opacity: 1;&quot;&gt;Delay 10 sec.&lt;/font&gt;&lt;/div&gt;" Function="EN_DIO_Error_T DIO_toggle(uint8_t pinNumber, EN_DIO_PORT_T portNumber);  " tags="Flowchart" id="S82p3zj0UuUOeoXFryLE-167">
          <mxCell style="verticalAlign=middle;align=center;overflow=width;vsdxID=274;fillColor=#d5e8d4;shape=stencil(nZBLDoAgDERP0z3SIyjew0SURgSD+Lu9kMZoXLhwN9O+tukAlrNpJg1SzDH4QW/URgNYgZTkjA4UkwJUgGXng+6DX1zLfmoymdXo17xh5zmRJ6Q42BWCfc2oJfdAr+Yv+AP9Cb7OJ3H/2JG1HNGz/84klThPVCc=);strokeColor=#82b366;spacingTop=-1;spacingBottom=-1;spacingLeft=-1;spacingRight=-1;points=[[0,0.5,0],[1,0.5,0],[0.5,1,0],[0.5,0,0]];labelBackgroundColor=none;rounded=1;html=1;whiteSpace=wrap;fontFamily=Calibri;" vertex="1" parent="1">
            <mxGeometry x="50.19999999999982" y="595" width="110" height="33" as="geometry" />
          </mxCell>
        </UserObject>
        <mxCell id="S82p3zj0UuUOeoXFryLE-168" style="edgeStyle=none;curved=1;rounded=0;orthogonalLoop=1;jettySize=auto;html=1;fontSize=12;startSize=8;endSize=8;" edge="1" parent="1" source="S82p3zj0UuUOeoXFryLE-157" target="S82p3zj0UuUOeoXFryLE-161">
          <mxGeometry relative="1" as="geometry" />
        </mxCell>
        <mxCell id="S82p3zj0UuUOeoXFryLE-169" style="edgeStyle=none;curved=1;rounded=0;orthogonalLoop=1;jettySize=auto;html=1;fontSize=12;startSize=8;endSize=8;" edge="1" parent="1" source="S82p3zj0UuUOeoXFryLE-159" target="S82p3zj0UuUOeoXFryLE-163">
          <mxGeometry relative="1" as="geometry" />
        </mxCell>
        <mxCell id="S82p3zj0UuUOeoXFryLE-170" style="edgeStyle=none;curved=1;rounded=0;orthogonalLoop=1;jettySize=auto;html=1;fontSize=12;startSize=8;endSize=8;" edge="1" parent="1" source="S82p3zj0UuUOeoXFryLE-165" target="S82p3zj0UuUOeoXFryLE-167">
          <mxGeometry relative="1" as="geometry" />
        </mxCell>
        <mxCell id="S82p3zj0UuUOeoXFryLE-171" style="edgeStyle=orthogonalEdgeStyle;rounded=1;orthogonalLoop=1;jettySize=auto;html=1;entryX=0;entryY=0.5;entryDx=0;entryDy=0;entryPerimeter=0;fontSize=12;startSize=8;endSize=8;exitX=0.5;exitY=1;exitDx=0;exitDy=0;exitPerimeter=0;" edge="1" parent="1" source="S82p3zj0UuUOeoXFryLE-146" target="S82p3zj0UuUOeoXFryLE-148">
          <mxGeometry relative="1" as="geometry" />
        </mxCell>
      </root>
    </mxGraphModel>
  </diagram>
</mxfile>
